M48
; DRILL file {KiCad 7.0.9-7.0.9~ubuntu20.04.1} date sob 25 nov 2023 19:44:06
; FORMAT={-:-/ absolute / metric / decimal}
; #@! TF.CreationDate,2023-11-25T19:44:06+01:00
; #@! TF.GenerationSoftware,Kicad,Pcbnew,7.0.9-7.0.9~ubuntu20.04.1
; #@! TF.FileFunction,Plated,1,2,PTH
FMAT,2
METRIC
; #@! TA.AperFunction,Plated,PTH,ComponentDrill
T1C0.800
; #@! TA.AperFunction,Plated,PTH,ComponentDrill
T2C1.000
%
G90
G05
T1
X133.192Y-107.188
X133.192Y-109.188
X135.192Y-107.188
X135.192Y-109.188
X137.192Y-107.188
X137.192Y-109.188
X139.192Y-107.188
X139.192Y-109.188
X141.192Y-107.188
X141.192Y-109.188
X143.192Y-107.188
X143.192Y-109.188
X145.192Y-107.188
X145.192Y-109.188
T2
X131.572Y-91.948
X131.572Y-94.488
X134.112Y-91.948
X134.112Y-94.488
X136.652Y-91.948
X136.652Y-94.488
X139.192Y-91.948
X139.192Y-94.488
X141.732Y-91.948
X141.732Y-94.488
X144.272Y-91.948
X144.272Y-94.488
X146.812Y-91.948
X146.812Y-94.488
T0
M30
