G04 #@! TF.GenerationSoftware,KiCad,Pcbnew,7.0.9-7.0.9~ubuntu20.04.1*
G04 #@! TF.CreationDate,2023-11-25T19:42:28+01:00*
G04 #@! TF.ProjectId,kicad-kria-jtag,6b696361-642d-46b7-9269-612d6a746167,1.0*
G04 #@! TF.SameCoordinates,Original*
G04 #@! TF.FileFunction,Legend,Bot*
G04 #@! TF.FilePolarity,Positive*
%FSLAX46Y46*%
G04 Gerber Fmt 4.6, Leading zero omitted, Abs format (unit mm)*
G04 Created by KiCad (PCBNEW 7.0.9-7.0.9~ubuntu20.04.1) date 2023-11-25 19:42:28*
%MOMM*%
%LPD*%
G01*
G04 APERTURE LIST*
G04 Aperture macros list*
%AMRoundRect*
0 Rectangle with rounded corners*
0 $1 Rounding radius*
0 $2 $3 $4 $5 $6 $7 $8 $9 X,Y pos of 4 corners*
0 Add a 4 corners polygon primitive as box body*
4,1,4,$2,$3,$4,$5,$6,$7,$8,$9,$2,$3,0*
0 Add four circle primitives for the rounded corners*
1,1,$1+$1,$2,$3*
1,1,$1+$1,$4,$5*
1,1,$1+$1,$6,$7*
1,1,$1+$1,$8,$9*
0 Add four rect primitives between the rounded corners*
20,1,$1+$1,$2,$3,$4,$5,0*
20,1,$1+$1,$4,$5,$6,$7,0*
20,1,$1+$1,$6,$7,$8,$9,0*
20,1,$1+$1,$8,$9,$2,$3,0*%
G04 Aperture macros list end*
%ADD10C,0.150000*%
%ADD11O,1.350000X1.350000*%
%ADD12R,1.350000X1.350000*%
%ADD13C,1.700000*%
%ADD14RoundRect,0.250000X0.600000X-0.600000X0.600000X0.600000X-0.600000X0.600000X-0.600000X-0.600000X0*%
G04 APERTURE END LIST*
D10*
X132185210Y-104648000D02*
G75*
G03*
X132185210Y-104648000I-359210J0D01*
G01*
X145403847Y-100707649D02*
X144594323Y-100707649D01*
X144594323Y-100707649D02*
X144499085Y-100755268D01*
X144499085Y-100755268D02*
X144451466Y-100802887D01*
X144451466Y-100802887D02*
X144403847Y-100898125D01*
X144403847Y-100898125D02*
X144403847Y-101040982D01*
X144403847Y-101040982D02*
X144451466Y-101136220D01*
X144784800Y-100707649D02*
X144737180Y-100802887D01*
X144737180Y-100802887D02*
X144737180Y-100993363D01*
X144737180Y-100993363D02*
X144784800Y-101088601D01*
X144784800Y-101088601D02*
X144832419Y-101136220D01*
X144832419Y-101136220D02*
X144927657Y-101183839D01*
X144927657Y-101183839D02*
X145213371Y-101183839D01*
X145213371Y-101183839D02*
X145308609Y-101136220D01*
X145308609Y-101136220D02*
X145356228Y-101088601D01*
X145356228Y-101088601D02*
X145403847Y-100993363D01*
X145403847Y-100993363D02*
X145403847Y-100802887D01*
X145403847Y-100802887D02*
X145356228Y-100707649D01*
X145403847Y-100231458D02*
X144737180Y-100231458D01*
X145308609Y-100231458D02*
X145356228Y-100183839D01*
X145356228Y-100183839D02*
X145403847Y-100088601D01*
X145403847Y-100088601D02*
X145403847Y-99945744D01*
X145403847Y-99945744D02*
X145356228Y-99850506D01*
X145356228Y-99850506D02*
X145260990Y-99802887D01*
X145260990Y-99802887D02*
X144737180Y-99802887D01*
X144737180Y-98898125D02*
X145737180Y-98898125D01*
X144784800Y-98898125D02*
X144737180Y-98993363D01*
X144737180Y-98993363D02*
X144737180Y-99183839D01*
X144737180Y-99183839D02*
X144784800Y-99279077D01*
X144784800Y-99279077D02*
X144832419Y-99326696D01*
X144832419Y-99326696D02*
X144927657Y-99374315D01*
X144927657Y-99374315D02*
X145213371Y-99374315D01*
X145213371Y-99374315D02*
X145308609Y-99326696D01*
X145308609Y-99326696D02*
X145356228Y-99279077D01*
X145356228Y-99279077D02*
X145403847Y-99183839D01*
X145403847Y-99183839D02*
X145403847Y-98993363D01*
X145403847Y-98993363D02*
X145356228Y-98898125D01*
X143403847Y-100707649D02*
X142594323Y-100707649D01*
X142594323Y-100707649D02*
X142499085Y-100755268D01*
X142499085Y-100755268D02*
X142451466Y-100802887D01*
X142451466Y-100802887D02*
X142403847Y-100898125D01*
X142403847Y-100898125D02*
X142403847Y-101040982D01*
X142403847Y-101040982D02*
X142451466Y-101136220D01*
X142784800Y-100707649D02*
X142737180Y-100802887D01*
X142737180Y-100802887D02*
X142737180Y-100993363D01*
X142737180Y-100993363D02*
X142784800Y-101088601D01*
X142784800Y-101088601D02*
X142832419Y-101136220D01*
X142832419Y-101136220D02*
X142927657Y-101183839D01*
X142927657Y-101183839D02*
X143213371Y-101183839D01*
X143213371Y-101183839D02*
X143308609Y-101136220D01*
X143308609Y-101136220D02*
X143356228Y-101088601D01*
X143356228Y-101088601D02*
X143403847Y-100993363D01*
X143403847Y-100993363D02*
X143403847Y-100802887D01*
X143403847Y-100802887D02*
X143356228Y-100707649D01*
X143403847Y-100231458D02*
X142737180Y-100231458D01*
X143308609Y-100231458D02*
X143356228Y-100183839D01*
X143356228Y-100183839D02*
X143403847Y-100088601D01*
X143403847Y-100088601D02*
X143403847Y-99945744D01*
X143403847Y-99945744D02*
X143356228Y-99850506D01*
X143356228Y-99850506D02*
X143260990Y-99802887D01*
X143260990Y-99802887D02*
X142737180Y-99802887D01*
X142737180Y-98898125D02*
X143737180Y-98898125D01*
X142784800Y-98898125D02*
X142737180Y-98993363D01*
X142737180Y-98993363D02*
X142737180Y-99183839D01*
X142737180Y-99183839D02*
X142784800Y-99279077D01*
X142784800Y-99279077D02*
X142832419Y-99326696D01*
X142832419Y-99326696D02*
X142927657Y-99374315D01*
X142927657Y-99374315D02*
X143213371Y-99374315D01*
X143213371Y-99374315D02*
X143308609Y-99326696D01*
X143308609Y-99326696D02*
X143356228Y-99279077D01*
X143356228Y-99279077D02*
X143403847Y-99183839D01*
X143403847Y-99183839D02*
X143403847Y-98993363D01*
X143403847Y-98993363D02*
X143356228Y-98898125D01*
X141403847Y-100707649D02*
X140594323Y-100707649D01*
X140594323Y-100707649D02*
X140499085Y-100755268D01*
X140499085Y-100755268D02*
X140451466Y-100802887D01*
X140451466Y-100802887D02*
X140403847Y-100898125D01*
X140403847Y-100898125D02*
X140403847Y-101040982D01*
X140403847Y-101040982D02*
X140451466Y-101136220D01*
X140784800Y-100707649D02*
X140737180Y-100802887D01*
X140737180Y-100802887D02*
X140737180Y-100993363D01*
X140737180Y-100993363D02*
X140784800Y-101088601D01*
X140784800Y-101088601D02*
X140832419Y-101136220D01*
X140832419Y-101136220D02*
X140927657Y-101183839D01*
X140927657Y-101183839D02*
X141213371Y-101183839D01*
X141213371Y-101183839D02*
X141308609Y-101136220D01*
X141308609Y-101136220D02*
X141356228Y-101088601D01*
X141356228Y-101088601D02*
X141403847Y-100993363D01*
X141403847Y-100993363D02*
X141403847Y-100802887D01*
X141403847Y-100802887D02*
X141356228Y-100707649D01*
X141403847Y-100231458D02*
X140737180Y-100231458D01*
X141308609Y-100231458D02*
X141356228Y-100183839D01*
X141356228Y-100183839D02*
X141403847Y-100088601D01*
X141403847Y-100088601D02*
X141403847Y-99945744D01*
X141403847Y-99945744D02*
X141356228Y-99850506D01*
X141356228Y-99850506D02*
X141260990Y-99802887D01*
X141260990Y-99802887D02*
X140737180Y-99802887D01*
X140737180Y-98898125D02*
X141737180Y-98898125D01*
X140784800Y-98898125D02*
X140737180Y-98993363D01*
X140737180Y-98993363D02*
X140737180Y-99183839D01*
X140737180Y-99183839D02*
X140784800Y-99279077D01*
X140784800Y-99279077D02*
X140832419Y-99326696D01*
X140832419Y-99326696D02*
X140927657Y-99374315D01*
X140927657Y-99374315D02*
X141213371Y-99374315D01*
X141213371Y-99374315D02*
X141308609Y-99326696D01*
X141308609Y-99326696D02*
X141356228Y-99279077D01*
X141356228Y-99279077D02*
X141403847Y-99183839D01*
X141403847Y-99183839D02*
X141403847Y-98993363D01*
X141403847Y-98993363D02*
X141356228Y-98898125D01*
X139403847Y-100707649D02*
X138594323Y-100707649D01*
X138594323Y-100707649D02*
X138499085Y-100755268D01*
X138499085Y-100755268D02*
X138451466Y-100802887D01*
X138451466Y-100802887D02*
X138403847Y-100898125D01*
X138403847Y-100898125D02*
X138403847Y-101040982D01*
X138403847Y-101040982D02*
X138451466Y-101136220D01*
X138784800Y-100707649D02*
X138737180Y-100802887D01*
X138737180Y-100802887D02*
X138737180Y-100993363D01*
X138737180Y-100993363D02*
X138784800Y-101088601D01*
X138784800Y-101088601D02*
X138832419Y-101136220D01*
X138832419Y-101136220D02*
X138927657Y-101183839D01*
X138927657Y-101183839D02*
X139213371Y-101183839D01*
X139213371Y-101183839D02*
X139308609Y-101136220D01*
X139308609Y-101136220D02*
X139356228Y-101088601D01*
X139356228Y-101088601D02*
X139403847Y-100993363D01*
X139403847Y-100993363D02*
X139403847Y-100802887D01*
X139403847Y-100802887D02*
X139356228Y-100707649D01*
X139403847Y-100231458D02*
X138737180Y-100231458D01*
X139308609Y-100231458D02*
X139356228Y-100183839D01*
X139356228Y-100183839D02*
X139403847Y-100088601D01*
X139403847Y-100088601D02*
X139403847Y-99945744D01*
X139403847Y-99945744D02*
X139356228Y-99850506D01*
X139356228Y-99850506D02*
X139260990Y-99802887D01*
X139260990Y-99802887D02*
X138737180Y-99802887D01*
X138737180Y-98898125D02*
X139737180Y-98898125D01*
X138784800Y-98898125D02*
X138737180Y-98993363D01*
X138737180Y-98993363D02*
X138737180Y-99183839D01*
X138737180Y-99183839D02*
X138784800Y-99279077D01*
X138784800Y-99279077D02*
X138832419Y-99326696D01*
X138832419Y-99326696D02*
X138927657Y-99374315D01*
X138927657Y-99374315D02*
X139213371Y-99374315D01*
X139213371Y-99374315D02*
X139308609Y-99326696D01*
X139308609Y-99326696D02*
X139356228Y-99279077D01*
X139356228Y-99279077D02*
X139403847Y-99183839D01*
X139403847Y-99183839D02*
X139403847Y-98993363D01*
X139403847Y-98993363D02*
X139356228Y-98898125D01*
X137403847Y-100707649D02*
X136594323Y-100707649D01*
X136594323Y-100707649D02*
X136499085Y-100755268D01*
X136499085Y-100755268D02*
X136451466Y-100802887D01*
X136451466Y-100802887D02*
X136403847Y-100898125D01*
X136403847Y-100898125D02*
X136403847Y-101040982D01*
X136403847Y-101040982D02*
X136451466Y-101136220D01*
X136784800Y-100707649D02*
X136737180Y-100802887D01*
X136737180Y-100802887D02*
X136737180Y-100993363D01*
X136737180Y-100993363D02*
X136784800Y-101088601D01*
X136784800Y-101088601D02*
X136832419Y-101136220D01*
X136832419Y-101136220D02*
X136927657Y-101183839D01*
X136927657Y-101183839D02*
X137213371Y-101183839D01*
X137213371Y-101183839D02*
X137308609Y-101136220D01*
X137308609Y-101136220D02*
X137356228Y-101088601D01*
X137356228Y-101088601D02*
X137403847Y-100993363D01*
X137403847Y-100993363D02*
X137403847Y-100802887D01*
X137403847Y-100802887D02*
X137356228Y-100707649D01*
X137403847Y-100231458D02*
X136737180Y-100231458D01*
X137308609Y-100231458D02*
X137356228Y-100183839D01*
X137356228Y-100183839D02*
X137403847Y-100088601D01*
X137403847Y-100088601D02*
X137403847Y-99945744D01*
X137403847Y-99945744D02*
X137356228Y-99850506D01*
X137356228Y-99850506D02*
X137260990Y-99802887D01*
X137260990Y-99802887D02*
X136737180Y-99802887D01*
X136737180Y-98898125D02*
X137737180Y-98898125D01*
X136784800Y-98898125D02*
X136737180Y-98993363D01*
X136737180Y-98993363D02*
X136737180Y-99183839D01*
X136737180Y-99183839D02*
X136784800Y-99279077D01*
X136784800Y-99279077D02*
X136832419Y-99326696D01*
X136832419Y-99326696D02*
X136927657Y-99374315D01*
X136927657Y-99374315D02*
X137213371Y-99374315D01*
X137213371Y-99374315D02*
X137308609Y-99326696D01*
X137308609Y-99326696D02*
X137356228Y-99279077D01*
X137356228Y-99279077D02*
X137403847Y-99183839D01*
X137403847Y-99183839D02*
X137403847Y-98993363D01*
X137403847Y-98993363D02*
X137356228Y-98898125D01*
X135403847Y-100707649D02*
X134594323Y-100707649D01*
X134594323Y-100707649D02*
X134499085Y-100755268D01*
X134499085Y-100755268D02*
X134451466Y-100802887D01*
X134451466Y-100802887D02*
X134403847Y-100898125D01*
X134403847Y-100898125D02*
X134403847Y-101040982D01*
X134403847Y-101040982D02*
X134451466Y-101136220D01*
X134784800Y-100707649D02*
X134737180Y-100802887D01*
X134737180Y-100802887D02*
X134737180Y-100993363D01*
X134737180Y-100993363D02*
X134784800Y-101088601D01*
X134784800Y-101088601D02*
X134832419Y-101136220D01*
X134832419Y-101136220D02*
X134927657Y-101183839D01*
X134927657Y-101183839D02*
X135213371Y-101183839D01*
X135213371Y-101183839D02*
X135308609Y-101136220D01*
X135308609Y-101136220D02*
X135356228Y-101088601D01*
X135356228Y-101088601D02*
X135403847Y-100993363D01*
X135403847Y-100993363D02*
X135403847Y-100802887D01*
X135403847Y-100802887D02*
X135356228Y-100707649D01*
X135403847Y-100231458D02*
X134737180Y-100231458D01*
X135308609Y-100231458D02*
X135356228Y-100183839D01*
X135356228Y-100183839D02*
X135403847Y-100088601D01*
X135403847Y-100088601D02*
X135403847Y-99945744D01*
X135403847Y-99945744D02*
X135356228Y-99850506D01*
X135356228Y-99850506D02*
X135260990Y-99802887D01*
X135260990Y-99802887D02*
X134737180Y-99802887D01*
X134737180Y-98898125D02*
X135737180Y-98898125D01*
X134784800Y-98898125D02*
X134737180Y-98993363D01*
X134737180Y-98993363D02*
X134737180Y-99183839D01*
X134737180Y-99183839D02*
X134784800Y-99279077D01*
X134784800Y-99279077D02*
X134832419Y-99326696D01*
X134832419Y-99326696D02*
X134927657Y-99374315D01*
X134927657Y-99374315D02*
X135213371Y-99374315D01*
X135213371Y-99374315D02*
X135308609Y-99326696D01*
X135308609Y-99326696D02*
X135356228Y-99279077D01*
X135356228Y-99279077D02*
X135403847Y-99183839D01*
X135403847Y-99183839D02*
X135403847Y-98993363D01*
X135403847Y-98993363D02*
X135356228Y-98898125D01*
X144737180Y-104851220D02*
X145737180Y-104851220D01*
X144737180Y-104422649D02*
X145260990Y-104422649D01*
X145260990Y-104422649D02*
X145356228Y-104470268D01*
X145356228Y-104470268D02*
X145403847Y-104565506D01*
X145403847Y-104565506D02*
X145403847Y-104708363D01*
X145403847Y-104708363D02*
X145356228Y-104803601D01*
X145356228Y-104803601D02*
X145308609Y-104851220D01*
X144737180Y-103517887D02*
X145260990Y-103517887D01*
X145260990Y-103517887D02*
X145356228Y-103565506D01*
X145356228Y-103565506D02*
X145403847Y-103660744D01*
X145403847Y-103660744D02*
X145403847Y-103851220D01*
X145403847Y-103851220D02*
X145356228Y-103946458D01*
X144784800Y-103517887D02*
X144737180Y-103613125D01*
X144737180Y-103613125D02*
X144737180Y-103851220D01*
X144737180Y-103851220D02*
X144784800Y-103946458D01*
X144784800Y-103946458D02*
X144880038Y-103994077D01*
X144880038Y-103994077D02*
X144975276Y-103994077D01*
X144975276Y-103994077D02*
X145070514Y-103946458D01*
X145070514Y-103946458D02*
X145118133Y-103851220D01*
X145118133Y-103851220D02*
X145118133Y-103613125D01*
X145118133Y-103613125D02*
X145165752Y-103517887D01*
X144737180Y-102898839D02*
X144784800Y-102994077D01*
X144784800Y-102994077D02*
X144880038Y-103041696D01*
X144880038Y-103041696D02*
X145737180Y-103041696D01*
X145403847Y-102660743D02*
X145403847Y-102279791D01*
X145737180Y-102517886D02*
X144880038Y-102517886D01*
X144880038Y-102517886D02*
X144784800Y-102470267D01*
X144784800Y-102470267D02*
X144737180Y-102375029D01*
X144737180Y-102375029D02*
X144737180Y-102279791D01*
X143403847Y-104851220D02*
X142737180Y-104851220D01*
X143308609Y-104851220D02*
X143356228Y-104803601D01*
X143356228Y-104803601D02*
X143403847Y-104708363D01*
X143403847Y-104708363D02*
X143403847Y-104565506D01*
X143403847Y-104565506D02*
X143356228Y-104470268D01*
X143356228Y-104470268D02*
X143260990Y-104422649D01*
X143260990Y-104422649D02*
X142737180Y-104422649D01*
X142784800Y-103517887D02*
X142737180Y-103613125D01*
X142737180Y-103613125D02*
X142737180Y-103803601D01*
X142737180Y-103803601D02*
X142784800Y-103898839D01*
X142784800Y-103898839D02*
X142832419Y-103946458D01*
X142832419Y-103946458D02*
X142927657Y-103994077D01*
X142927657Y-103994077D02*
X143213371Y-103994077D01*
X143213371Y-103994077D02*
X143308609Y-103946458D01*
X143308609Y-103946458D02*
X143356228Y-103898839D01*
X143356228Y-103898839D02*
X143403847Y-103803601D01*
X143403847Y-103803601D02*
X143403847Y-103613125D01*
X143403847Y-103613125D02*
X143356228Y-103517887D01*
X141403847Y-104994077D02*
X141403847Y-104613125D01*
X141737180Y-104851220D02*
X140880038Y-104851220D01*
X140880038Y-104851220D02*
X140784800Y-104803601D01*
X140784800Y-104803601D02*
X140737180Y-104708363D01*
X140737180Y-104708363D02*
X140737180Y-104613125D01*
X140737180Y-103851220D02*
X141737180Y-103851220D01*
X140784800Y-103851220D02*
X140737180Y-103946458D01*
X140737180Y-103946458D02*
X140737180Y-104136934D01*
X140737180Y-104136934D02*
X140784800Y-104232172D01*
X140784800Y-104232172D02*
X140832419Y-104279791D01*
X140832419Y-104279791D02*
X140927657Y-104327410D01*
X140927657Y-104327410D02*
X141213371Y-104327410D01*
X141213371Y-104327410D02*
X141308609Y-104279791D01*
X141308609Y-104279791D02*
X141356228Y-104232172D01*
X141356228Y-104232172D02*
X141403847Y-104136934D01*
X141403847Y-104136934D02*
X141403847Y-103946458D01*
X141403847Y-103946458D02*
X141356228Y-103851220D01*
X140737180Y-103375029D02*
X141403847Y-103375029D01*
X141737180Y-103375029D02*
X141689561Y-103422648D01*
X141689561Y-103422648D02*
X141641942Y-103375029D01*
X141641942Y-103375029D02*
X141689561Y-103327410D01*
X141689561Y-103327410D02*
X141737180Y-103375029D01*
X141737180Y-103375029D02*
X141641942Y-103375029D01*
X139403847Y-104994077D02*
X139403847Y-104613125D01*
X139737180Y-104851220D02*
X138880038Y-104851220D01*
X138880038Y-104851220D02*
X138784800Y-104803601D01*
X138784800Y-104803601D02*
X138737180Y-104708363D01*
X138737180Y-104708363D02*
X138737180Y-104613125D01*
X138737180Y-103851220D02*
X139737180Y-103851220D01*
X138784800Y-103851220D02*
X138737180Y-103946458D01*
X138737180Y-103946458D02*
X138737180Y-104136934D01*
X138737180Y-104136934D02*
X138784800Y-104232172D01*
X138784800Y-104232172D02*
X138832419Y-104279791D01*
X138832419Y-104279791D02*
X138927657Y-104327410D01*
X138927657Y-104327410D02*
X139213371Y-104327410D01*
X139213371Y-104327410D02*
X139308609Y-104279791D01*
X139308609Y-104279791D02*
X139356228Y-104232172D01*
X139356228Y-104232172D02*
X139403847Y-104136934D01*
X139403847Y-104136934D02*
X139403847Y-103946458D01*
X139403847Y-103946458D02*
X139356228Y-103851220D01*
X138737180Y-103232172D02*
X138784800Y-103327410D01*
X138784800Y-103327410D02*
X138832419Y-103375029D01*
X138832419Y-103375029D02*
X138927657Y-103422648D01*
X138927657Y-103422648D02*
X139213371Y-103422648D01*
X139213371Y-103422648D02*
X139308609Y-103375029D01*
X139308609Y-103375029D02*
X139356228Y-103327410D01*
X139356228Y-103327410D02*
X139403847Y-103232172D01*
X139403847Y-103232172D02*
X139403847Y-103089315D01*
X139403847Y-103089315D02*
X139356228Y-102994077D01*
X139356228Y-102994077D02*
X139308609Y-102946458D01*
X139308609Y-102946458D02*
X139213371Y-102898839D01*
X139213371Y-102898839D02*
X138927657Y-102898839D01*
X138927657Y-102898839D02*
X138832419Y-102946458D01*
X138832419Y-102946458D02*
X138784800Y-102994077D01*
X138784800Y-102994077D02*
X138737180Y-103089315D01*
X138737180Y-103089315D02*
X138737180Y-103232172D01*
X137403847Y-104994077D02*
X137403847Y-104613125D01*
X137737180Y-104851220D02*
X136880038Y-104851220D01*
X136880038Y-104851220D02*
X136784800Y-104803601D01*
X136784800Y-104803601D02*
X136737180Y-104708363D01*
X136737180Y-104708363D02*
X136737180Y-104613125D01*
X136784800Y-103851220D02*
X136737180Y-103946458D01*
X136737180Y-103946458D02*
X136737180Y-104136934D01*
X136737180Y-104136934D02*
X136784800Y-104232172D01*
X136784800Y-104232172D02*
X136832419Y-104279791D01*
X136832419Y-104279791D02*
X136927657Y-104327410D01*
X136927657Y-104327410D02*
X137213371Y-104327410D01*
X137213371Y-104327410D02*
X137308609Y-104279791D01*
X137308609Y-104279791D02*
X137356228Y-104232172D01*
X137356228Y-104232172D02*
X137403847Y-104136934D01*
X137403847Y-104136934D02*
X137403847Y-103946458D01*
X137403847Y-103946458D02*
X137356228Y-103851220D01*
X136737180Y-103422648D02*
X137737180Y-103422648D01*
X137118133Y-103327410D02*
X136737180Y-103041696D01*
X137403847Y-103041696D02*
X137022895Y-103422648D01*
X135403847Y-104994077D02*
X135403847Y-104613125D01*
X135737180Y-104851220D02*
X134880038Y-104851220D01*
X134880038Y-104851220D02*
X134784800Y-104803601D01*
X134784800Y-104803601D02*
X134737180Y-104708363D01*
X134737180Y-104708363D02*
X134737180Y-104613125D01*
X134737180Y-104279791D02*
X135403847Y-104279791D01*
X135308609Y-104279791D02*
X135356228Y-104232172D01*
X135356228Y-104232172D02*
X135403847Y-104136934D01*
X135403847Y-104136934D02*
X135403847Y-103994077D01*
X135403847Y-103994077D02*
X135356228Y-103898839D01*
X135356228Y-103898839D02*
X135260990Y-103851220D01*
X135260990Y-103851220D02*
X134737180Y-103851220D01*
X135260990Y-103851220D02*
X135356228Y-103803601D01*
X135356228Y-103803601D02*
X135403847Y-103708363D01*
X135403847Y-103708363D02*
X135403847Y-103565506D01*
X135403847Y-103565506D02*
X135356228Y-103470267D01*
X135356228Y-103470267D02*
X135260990Y-103422648D01*
X135260990Y-103422648D02*
X134737180Y-103422648D01*
X134784800Y-102994077D02*
X134737180Y-102898839D01*
X134737180Y-102898839D02*
X134737180Y-102708363D01*
X134737180Y-102708363D02*
X134784800Y-102613125D01*
X134784800Y-102613125D02*
X134880038Y-102565506D01*
X134880038Y-102565506D02*
X134927657Y-102565506D01*
X134927657Y-102565506D02*
X135022895Y-102613125D01*
X135022895Y-102613125D02*
X135070514Y-102708363D01*
X135070514Y-102708363D02*
X135070514Y-102851220D01*
X135070514Y-102851220D02*
X135118133Y-102946458D01*
X135118133Y-102946458D02*
X135213371Y-102994077D01*
X135213371Y-102994077D02*
X135260990Y-102994077D01*
X135260990Y-102994077D02*
X135356228Y-102946458D01*
X135356228Y-102946458D02*
X135403847Y-102851220D01*
X135403847Y-102851220D02*
X135403847Y-102708363D01*
X135403847Y-102708363D02*
X135356228Y-102613125D01*
X133403847Y-100707649D02*
X132594323Y-100707649D01*
X132594323Y-100707649D02*
X132499085Y-100755268D01*
X132499085Y-100755268D02*
X132451466Y-100802887D01*
X132451466Y-100802887D02*
X132403847Y-100898125D01*
X132403847Y-100898125D02*
X132403847Y-101040982D01*
X132403847Y-101040982D02*
X132451466Y-101136220D01*
X132784800Y-100707649D02*
X132737180Y-100802887D01*
X132737180Y-100802887D02*
X132737180Y-100993363D01*
X132737180Y-100993363D02*
X132784800Y-101088601D01*
X132784800Y-101088601D02*
X132832419Y-101136220D01*
X132832419Y-101136220D02*
X132927657Y-101183839D01*
X132927657Y-101183839D02*
X133213371Y-101183839D01*
X133213371Y-101183839D02*
X133308609Y-101136220D01*
X133308609Y-101136220D02*
X133356228Y-101088601D01*
X133356228Y-101088601D02*
X133403847Y-100993363D01*
X133403847Y-100993363D02*
X133403847Y-100802887D01*
X133403847Y-100802887D02*
X133356228Y-100707649D01*
X133403847Y-100231458D02*
X132737180Y-100231458D01*
X133308609Y-100231458D02*
X133356228Y-100183839D01*
X133356228Y-100183839D02*
X133403847Y-100088601D01*
X133403847Y-100088601D02*
X133403847Y-99945744D01*
X133403847Y-99945744D02*
X133356228Y-99850506D01*
X133356228Y-99850506D02*
X133260990Y-99802887D01*
X133260990Y-99802887D02*
X132737180Y-99802887D01*
X132737180Y-98898125D02*
X133737180Y-98898125D01*
X132784800Y-98898125D02*
X132737180Y-98993363D01*
X132737180Y-98993363D02*
X132737180Y-99183839D01*
X132737180Y-99183839D02*
X132784800Y-99279077D01*
X132784800Y-99279077D02*
X132832419Y-99326696D01*
X132832419Y-99326696D02*
X132927657Y-99374315D01*
X132927657Y-99374315D02*
X133213371Y-99374315D01*
X133213371Y-99374315D02*
X133308609Y-99326696D01*
X133308609Y-99326696D02*
X133356228Y-99279077D01*
X133356228Y-99279077D02*
X133403847Y-99183839D01*
X133403847Y-99183839D02*
X133403847Y-98993363D01*
X133403847Y-98993363D02*
X133356228Y-98898125D01*
X133403847Y-105041458D02*
X132737180Y-104803363D01*
X132737180Y-104803363D02*
X133403847Y-104565268D01*
X132737180Y-104184315D02*
X133403847Y-104184315D01*
X133213371Y-104184315D02*
X133308609Y-104136696D01*
X133308609Y-104136696D02*
X133356228Y-104089077D01*
X133356228Y-104089077D02*
X133403847Y-103993839D01*
X133403847Y-103993839D02*
X133403847Y-103898601D01*
X132784800Y-103184315D02*
X132737180Y-103279553D01*
X132737180Y-103279553D02*
X132737180Y-103470029D01*
X132737180Y-103470029D02*
X132784800Y-103565267D01*
X132784800Y-103565267D02*
X132880038Y-103612886D01*
X132880038Y-103612886D02*
X133260990Y-103612886D01*
X133260990Y-103612886D02*
X133356228Y-103565267D01*
X133356228Y-103565267D02*
X133403847Y-103470029D01*
X133403847Y-103470029D02*
X133403847Y-103279553D01*
X133403847Y-103279553D02*
X133356228Y-103184315D01*
X133356228Y-103184315D02*
X133260990Y-103136696D01*
X133260990Y-103136696D02*
X133165752Y-103136696D01*
X133165752Y-103136696D02*
X133070514Y-103612886D01*
X133403847Y-102850981D02*
X133403847Y-102470029D01*
X132737180Y-102708124D02*
X133594323Y-102708124D01*
X133594323Y-102708124D02*
X133689561Y-102660505D01*
X133689561Y-102660505D02*
X133737180Y-102565267D01*
X133737180Y-102565267D02*
X133737180Y-102470029D01*
%LPC*%
D11*
X145192000Y-109188000D03*
X145192000Y-107188000D03*
X143192000Y-109188000D03*
X143192000Y-107188000D03*
X141192000Y-109188000D03*
X141192000Y-107188000D03*
X139192000Y-109188000D03*
X139192000Y-107188000D03*
X137192000Y-109188000D03*
X137192000Y-107188000D03*
X135192000Y-109188000D03*
X135192000Y-107188000D03*
X133192000Y-109188000D03*
D12*
X133192000Y-107188000D03*
D13*
X146812000Y-91948000D03*
X146812000Y-94488000D03*
X144272000Y-91948000D03*
X144272000Y-94488000D03*
X141732000Y-91948000D03*
X141732000Y-94488000D03*
X139192000Y-91948000D03*
X139192000Y-94488000D03*
X136652000Y-91948000D03*
X136652000Y-94488000D03*
X134112000Y-91948000D03*
X134112000Y-94488000D03*
X131572000Y-91948000D03*
D14*
X131572000Y-94488000D03*
%LPD*%
M02*
