%TF.GenerationSoftware,KiCad,Pcbnew,7.0.9-7.0.9~ubuntu20.04.1*%
%TF.CreationDate,2023-11-25T19:44:14+01:00*%
%TF.ProjectId,kicad-kria-jtag,6b696361-642d-46b7-9269-612d6a746167,1.0*%
%TF.SameCoordinates,Original*%
%TF.FileFunction,Drillmap*%
%TF.FilePolarity,Positive*%
%FSLAX45Y45*%
G04 Gerber Fmt 4.5, Leading zero omitted, Abs format (unit mm)*
G04 Created by KiCad (PCBNEW 7.0.9-7.0.9~ubuntu20.04.1) date 2023-11-25 19:44:14*
%MOMM*%
%LPD*%
G01*
G04 APERTURE LIST*
%ADD10C,0.100000*%
%ADD11C,0.200000*%
G04 APERTURE END LIST*
D10*
X12598400Y-8686800D02*
G75*
G03*
X12522200Y-8763000I0J-76200D01*
G01*
X15316200Y-8763000D02*
G75*
G03*
X15240000Y-8686800I-76200J0D01*
G01*
X14630400Y-11099800D02*
G75*
G03*
X14681200Y-11049000I0J50800D01*
G01*
X13157200Y-11049000D02*
G75*
G03*
X13208000Y-11099800I50800J0D01*
G01*
X13157200Y-10591800D02*
X13157200Y-11049000D01*
X12522200Y-10210800D02*
X13157200Y-10591800D01*
X12522200Y-8763000D02*
X12522200Y-10210800D01*
X15240000Y-8686800D02*
X12598400Y-8686800D01*
X15316200Y-10210800D02*
X15316200Y-8763000D01*
X14681200Y-10591800D02*
X15316200Y-10210800D01*
X14681200Y-11049000D02*
X14681200Y-10591800D01*
X13208000Y-11099800D02*
X14630400Y-11099800D01*
D11*
X12777977Y-11416284D02*
X12777977Y-11216284D01*
X12777977Y-11216284D02*
X12825596Y-11216284D01*
X12825596Y-11216284D02*
X12854167Y-11225808D01*
X12854167Y-11225808D02*
X12873215Y-11244855D01*
X12873215Y-11244855D02*
X12882739Y-11263903D01*
X12882739Y-11263903D02*
X12892262Y-11301998D01*
X12892262Y-11301998D02*
X12892262Y-11330569D01*
X12892262Y-11330569D02*
X12882739Y-11368665D01*
X12882739Y-11368665D02*
X12873215Y-11387712D01*
X12873215Y-11387712D02*
X12854167Y-11406760D01*
X12854167Y-11406760D02*
X12825596Y-11416284D01*
X12825596Y-11416284D02*
X12777977Y-11416284D01*
X12977977Y-11416284D02*
X12977977Y-11282950D01*
X12977977Y-11321046D02*
X12987501Y-11301998D01*
X12987501Y-11301998D02*
X12997024Y-11292474D01*
X12997024Y-11292474D02*
X13016072Y-11282950D01*
X13016072Y-11282950D02*
X13035120Y-11282950D01*
X13101786Y-11416284D02*
X13101786Y-11282950D01*
X13101786Y-11216284D02*
X13092262Y-11225808D01*
X13092262Y-11225808D02*
X13101786Y-11235331D01*
X13101786Y-11235331D02*
X13111310Y-11225808D01*
X13111310Y-11225808D02*
X13101786Y-11216284D01*
X13101786Y-11216284D02*
X13101786Y-11235331D01*
X13225596Y-11416284D02*
X13206548Y-11406760D01*
X13206548Y-11406760D02*
X13197024Y-11387712D01*
X13197024Y-11387712D02*
X13197024Y-11216284D01*
X13330358Y-11416284D02*
X13311310Y-11406760D01*
X13311310Y-11406760D02*
X13301786Y-11387712D01*
X13301786Y-11387712D02*
X13301786Y-11216284D01*
X13558929Y-11416284D02*
X13558929Y-11216284D01*
X13558929Y-11216284D02*
X13625596Y-11359141D01*
X13625596Y-11359141D02*
X13692262Y-11216284D01*
X13692262Y-11216284D02*
X13692262Y-11416284D01*
X13873215Y-11416284D02*
X13873215Y-11311522D01*
X13873215Y-11311522D02*
X13863691Y-11292474D01*
X13863691Y-11292474D02*
X13844643Y-11282950D01*
X13844643Y-11282950D02*
X13806548Y-11282950D01*
X13806548Y-11282950D02*
X13787501Y-11292474D01*
X13873215Y-11406760D02*
X13854167Y-11416284D01*
X13854167Y-11416284D02*
X13806548Y-11416284D01*
X13806548Y-11416284D02*
X13787501Y-11406760D01*
X13787501Y-11406760D02*
X13777977Y-11387712D01*
X13777977Y-11387712D02*
X13777977Y-11368665D01*
X13777977Y-11368665D02*
X13787501Y-11349617D01*
X13787501Y-11349617D02*
X13806548Y-11340093D01*
X13806548Y-11340093D02*
X13854167Y-11340093D01*
X13854167Y-11340093D02*
X13873215Y-11330569D01*
X13968453Y-11282950D02*
X13968453Y-11482950D01*
X13968453Y-11292474D02*
X13987501Y-11282950D01*
X13987501Y-11282950D02*
X14025596Y-11282950D01*
X14025596Y-11282950D02*
X14044643Y-11292474D01*
X14044643Y-11292474D02*
X14054167Y-11301998D01*
X14054167Y-11301998D02*
X14063691Y-11321046D01*
X14063691Y-11321046D02*
X14063691Y-11378188D01*
X14063691Y-11378188D02*
X14054167Y-11397236D01*
X14054167Y-11397236D02*
X14044643Y-11406760D01*
X14044643Y-11406760D02*
X14025596Y-11416284D01*
X14025596Y-11416284D02*
X13987501Y-11416284D01*
X13987501Y-11416284D02*
X13968453Y-11406760D01*
X14149405Y-11397236D02*
X14158929Y-11406760D01*
X14158929Y-11406760D02*
X14149405Y-11416284D01*
X14149405Y-11416284D02*
X14139882Y-11406760D01*
X14139882Y-11406760D02*
X14149405Y-11397236D01*
X14149405Y-11397236D02*
X14149405Y-11416284D01*
X14149405Y-11292474D02*
X14158929Y-11301998D01*
X14158929Y-11301998D02*
X14149405Y-11311522D01*
X14149405Y-11311522D02*
X14139882Y-11301998D01*
X14139882Y-11301998D02*
X14149405Y-11292474D01*
X14149405Y-11292474D02*
X14149405Y-11311522D01*
M02*
