%TF.GenerationSoftware,KiCad,Pcbnew,7.0.9-7.0.9~ubuntu20.04.1*%
%TF.CreationDate,2023-11-25T19:44:14+01:00*%
%TF.ProjectId,kicad-kria-jtag,6b696361-642d-46b7-9269-612d6a746167,1.0*%
%TF.SameCoordinates,Original*%
%TF.FileFunction,Drillmap*%
%TF.FilePolarity,Positive*%
%FSLAX45Y45*%
G04 Gerber Fmt 4.5, Leading zero omitted, Abs format (unit mm)*
G04 Created by KiCad (PCBNEW 7.0.9-7.0.9~ubuntu20.04.1) date 2023-11-25 19:44:14*
%MOMM*%
%LPD*%
G01*
G04 APERTURE LIST*
%ADD10C,0.100000*%
%ADD11C,0.200000*%
G04 APERTURE END LIST*
D10*
X12598400Y-8686800D02*
G75*
G03*
X12522200Y-8763000I0J-76200D01*
G01*
X15316200Y-8763000D02*
G75*
G03*
X15240000Y-8686800I-76200J0D01*
G01*
X14630400Y-11099800D02*
G75*
G03*
X14681200Y-11049000I0J50800D01*
G01*
X13157200Y-11049000D02*
G75*
G03*
X13208000Y-11099800I50800J0D01*
G01*
X13157200Y-10591800D02*
X13157200Y-11049000D01*
X12522200Y-10210800D02*
X13157200Y-10591800D01*
X12522200Y-8763000D02*
X12522200Y-10210800D01*
X15240000Y-8686800D02*
X12598400Y-8686800D01*
X15316200Y-10210800D02*
X15316200Y-8763000D01*
X14681200Y-10591800D02*
X15316200Y-10210800D01*
X14681200Y-11049000D02*
X14681200Y-10591800D01*
X13208000Y-11099800D02*
X14630400Y-11099800D01*
D11*
D10*
X13279200Y-10678800D02*
X13359200Y-10758800D01*
X13359200Y-10678800D02*
X13279200Y-10758800D01*
X13279200Y-10878800D02*
X13359200Y-10958800D01*
X13359200Y-10878800D02*
X13279200Y-10958800D01*
X13479200Y-10678800D02*
X13559200Y-10758800D01*
X13559200Y-10678800D02*
X13479200Y-10758800D01*
X13479200Y-10878800D02*
X13559200Y-10958800D01*
X13559200Y-10878800D02*
X13479200Y-10958800D01*
X13679200Y-10678800D02*
X13759200Y-10758800D01*
X13759200Y-10678800D02*
X13679200Y-10758800D01*
X13679200Y-10878800D02*
X13759200Y-10958800D01*
X13759200Y-10878800D02*
X13679200Y-10958800D01*
X13879200Y-10678800D02*
X13959200Y-10758800D01*
X13959200Y-10678800D02*
X13879200Y-10758800D01*
X13879200Y-10878800D02*
X13959200Y-10958800D01*
X13959200Y-10878800D02*
X13879200Y-10958800D01*
X14079200Y-10678800D02*
X14159200Y-10758800D01*
X14159200Y-10678800D02*
X14079200Y-10758800D01*
X14079200Y-10878800D02*
X14159200Y-10958800D01*
X14159200Y-10878800D02*
X14079200Y-10958800D01*
X14279200Y-10678800D02*
X14359200Y-10758800D01*
X14359200Y-10678800D02*
X14279200Y-10758800D01*
X14279200Y-10878800D02*
X14359200Y-10958800D01*
X14359200Y-10878800D02*
X14279200Y-10958800D01*
X14479200Y-10678800D02*
X14559200Y-10758800D01*
X14559200Y-10678800D02*
X14479200Y-10758800D01*
X14479200Y-10878800D02*
X14559200Y-10958800D01*
X14559200Y-10878800D02*
X14479200Y-10958800D01*
X13207200Y-9194800D02*
G75*
G03*
X13207200Y-9194800I-50000J0D01*
G01*
X13207200Y-9448800D02*
G75*
G03*
X13207200Y-9448800I-50000J0D01*
G01*
X13461200Y-9194800D02*
G75*
G03*
X13461200Y-9194800I-50000J0D01*
G01*
X13461200Y-9448800D02*
G75*
G03*
X13461200Y-9448800I-50000J0D01*
G01*
X13715200Y-9194800D02*
G75*
G03*
X13715200Y-9194800I-50000J0D01*
G01*
X13715200Y-9448800D02*
G75*
G03*
X13715200Y-9448800I-50000J0D01*
G01*
X13969200Y-9194800D02*
G75*
G03*
X13969200Y-9194800I-50000J0D01*
G01*
X13969200Y-9448800D02*
G75*
G03*
X13969200Y-9448800I-50000J0D01*
G01*
X14223200Y-9194800D02*
G75*
G03*
X14223200Y-9194800I-50000J0D01*
G01*
X14223200Y-9448800D02*
G75*
G03*
X14223200Y-9448800I-50000J0D01*
G01*
X14477200Y-9194800D02*
G75*
G03*
X14477200Y-9194800I-50000J0D01*
G01*
X14477200Y-9448800D02*
G75*
G03*
X14477200Y-9448800I-50000J0D01*
G01*
X14731200Y-9194800D02*
G75*
G03*
X14731200Y-9194800I-50000J0D01*
G01*
X14731200Y-9448800D02*
G75*
G03*
X14731200Y-9448800I-50000J0D01*
G01*
D11*
X12777977Y-11416284D02*
X12777977Y-11216284D01*
X12777977Y-11216284D02*
X12825596Y-11216284D01*
X12825596Y-11216284D02*
X12854167Y-11225808D01*
X12854167Y-11225808D02*
X12873215Y-11244855D01*
X12873215Y-11244855D02*
X12882739Y-11263903D01*
X12882739Y-11263903D02*
X12892262Y-11301998D01*
X12892262Y-11301998D02*
X12892262Y-11330569D01*
X12892262Y-11330569D02*
X12882739Y-11368665D01*
X12882739Y-11368665D02*
X12873215Y-11387712D01*
X12873215Y-11387712D02*
X12854167Y-11406760D01*
X12854167Y-11406760D02*
X12825596Y-11416284D01*
X12825596Y-11416284D02*
X12777977Y-11416284D01*
X12977977Y-11416284D02*
X12977977Y-11282950D01*
X12977977Y-11321046D02*
X12987501Y-11301998D01*
X12987501Y-11301998D02*
X12997024Y-11292474D01*
X12997024Y-11292474D02*
X13016072Y-11282950D01*
X13016072Y-11282950D02*
X13035120Y-11282950D01*
X13101786Y-11416284D02*
X13101786Y-11282950D01*
X13101786Y-11216284D02*
X13092262Y-11225808D01*
X13092262Y-11225808D02*
X13101786Y-11235331D01*
X13101786Y-11235331D02*
X13111310Y-11225808D01*
X13111310Y-11225808D02*
X13101786Y-11216284D01*
X13101786Y-11216284D02*
X13101786Y-11235331D01*
X13225596Y-11416284D02*
X13206548Y-11406760D01*
X13206548Y-11406760D02*
X13197024Y-11387712D01*
X13197024Y-11387712D02*
X13197024Y-11216284D01*
X13330358Y-11416284D02*
X13311310Y-11406760D01*
X13311310Y-11406760D02*
X13301786Y-11387712D01*
X13301786Y-11387712D02*
X13301786Y-11216284D01*
X13558929Y-11416284D02*
X13558929Y-11216284D01*
X13558929Y-11216284D02*
X13625596Y-11359141D01*
X13625596Y-11359141D02*
X13692262Y-11216284D01*
X13692262Y-11216284D02*
X13692262Y-11416284D01*
X13873215Y-11416284D02*
X13873215Y-11311522D01*
X13873215Y-11311522D02*
X13863691Y-11292474D01*
X13863691Y-11292474D02*
X13844643Y-11282950D01*
X13844643Y-11282950D02*
X13806548Y-11282950D01*
X13806548Y-11282950D02*
X13787501Y-11292474D01*
X13873215Y-11406760D02*
X13854167Y-11416284D01*
X13854167Y-11416284D02*
X13806548Y-11416284D01*
X13806548Y-11416284D02*
X13787501Y-11406760D01*
X13787501Y-11406760D02*
X13777977Y-11387712D01*
X13777977Y-11387712D02*
X13777977Y-11368665D01*
X13777977Y-11368665D02*
X13787501Y-11349617D01*
X13787501Y-11349617D02*
X13806548Y-11340093D01*
X13806548Y-11340093D02*
X13854167Y-11340093D01*
X13854167Y-11340093D02*
X13873215Y-11330569D01*
X13968453Y-11282950D02*
X13968453Y-11482950D01*
X13968453Y-11292474D02*
X13987501Y-11282950D01*
X13987501Y-11282950D02*
X14025596Y-11282950D01*
X14025596Y-11282950D02*
X14044643Y-11292474D01*
X14044643Y-11292474D02*
X14054167Y-11301998D01*
X14054167Y-11301998D02*
X14063691Y-11321046D01*
X14063691Y-11321046D02*
X14063691Y-11378188D01*
X14063691Y-11378188D02*
X14054167Y-11397236D01*
X14054167Y-11397236D02*
X14044643Y-11406760D01*
X14044643Y-11406760D02*
X14025596Y-11416284D01*
X14025596Y-11416284D02*
X13987501Y-11416284D01*
X13987501Y-11416284D02*
X13968453Y-11406760D01*
X14149405Y-11397236D02*
X14158929Y-11406760D01*
X14158929Y-11406760D02*
X14149405Y-11416284D01*
X14149405Y-11416284D02*
X14139882Y-11406760D01*
X14139882Y-11406760D02*
X14149405Y-11397236D01*
X14149405Y-11397236D02*
X14149405Y-11416284D01*
X14149405Y-11292474D02*
X14158929Y-11301998D01*
X14158929Y-11301998D02*
X14149405Y-11311522D01*
X14149405Y-11311522D02*
X14139882Y-11301998D01*
X14139882Y-11301998D02*
X14149405Y-11292474D01*
X14149405Y-11292474D02*
X14149405Y-11311522D01*
D10*
X12437200Y-11704800D02*
X12517200Y-11784800D01*
X12517200Y-11704800D02*
X12437200Y-11784800D01*
D11*
X12816072Y-11636284D02*
X12835120Y-11636284D01*
X12835120Y-11636284D02*
X12854167Y-11645808D01*
X12854167Y-11645808D02*
X12863691Y-11655331D01*
X12863691Y-11655331D02*
X12873215Y-11674379D01*
X12873215Y-11674379D02*
X12882739Y-11712474D01*
X12882739Y-11712474D02*
X12882739Y-11760093D01*
X12882739Y-11760093D02*
X12873215Y-11798188D01*
X12873215Y-11798188D02*
X12863691Y-11817236D01*
X12863691Y-11817236D02*
X12854167Y-11826760D01*
X12854167Y-11826760D02*
X12835120Y-11836284D01*
X12835120Y-11836284D02*
X12816072Y-11836284D01*
X12816072Y-11836284D02*
X12797024Y-11826760D01*
X12797024Y-11826760D02*
X12787501Y-11817236D01*
X12787501Y-11817236D02*
X12777977Y-11798188D01*
X12777977Y-11798188D02*
X12768453Y-11760093D01*
X12768453Y-11760093D02*
X12768453Y-11712474D01*
X12768453Y-11712474D02*
X12777977Y-11674379D01*
X12777977Y-11674379D02*
X12787501Y-11655331D01*
X12787501Y-11655331D02*
X12797024Y-11645808D01*
X12797024Y-11645808D02*
X12816072Y-11636284D01*
X12968453Y-11817236D02*
X12977977Y-11826760D01*
X12977977Y-11826760D02*
X12968453Y-11836284D01*
X12968453Y-11836284D02*
X12958929Y-11826760D01*
X12958929Y-11826760D02*
X12968453Y-11817236D01*
X12968453Y-11817236D02*
X12968453Y-11836284D01*
X13092262Y-11721998D02*
X13073215Y-11712474D01*
X13073215Y-11712474D02*
X13063691Y-11702950D01*
X13063691Y-11702950D02*
X13054167Y-11683903D01*
X13054167Y-11683903D02*
X13054167Y-11674379D01*
X13054167Y-11674379D02*
X13063691Y-11655331D01*
X13063691Y-11655331D02*
X13073215Y-11645808D01*
X13073215Y-11645808D02*
X13092262Y-11636284D01*
X13092262Y-11636284D02*
X13130358Y-11636284D01*
X13130358Y-11636284D02*
X13149405Y-11645808D01*
X13149405Y-11645808D02*
X13158929Y-11655331D01*
X13158929Y-11655331D02*
X13168453Y-11674379D01*
X13168453Y-11674379D02*
X13168453Y-11683903D01*
X13168453Y-11683903D02*
X13158929Y-11702950D01*
X13158929Y-11702950D02*
X13149405Y-11712474D01*
X13149405Y-11712474D02*
X13130358Y-11721998D01*
X13130358Y-11721998D02*
X13092262Y-11721998D01*
X13092262Y-11721998D02*
X13073215Y-11731522D01*
X13073215Y-11731522D02*
X13063691Y-11741046D01*
X13063691Y-11741046D02*
X13054167Y-11760093D01*
X13054167Y-11760093D02*
X13054167Y-11798188D01*
X13054167Y-11798188D02*
X13063691Y-11817236D01*
X13063691Y-11817236D02*
X13073215Y-11826760D01*
X13073215Y-11826760D02*
X13092262Y-11836284D01*
X13092262Y-11836284D02*
X13130358Y-11836284D01*
X13130358Y-11836284D02*
X13149405Y-11826760D01*
X13149405Y-11826760D02*
X13158929Y-11817236D01*
X13158929Y-11817236D02*
X13168453Y-11798188D01*
X13168453Y-11798188D02*
X13168453Y-11760093D01*
X13168453Y-11760093D02*
X13158929Y-11741046D01*
X13158929Y-11741046D02*
X13149405Y-11731522D01*
X13149405Y-11731522D02*
X13130358Y-11721998D01*
X13292262Y-11636284D02*
X13311310Y-11636284D01*
X13311310Y-11636284D02*
X13330358Y-11645808D01*
X13330358Y-11645808D02*
X13339882Y-11655331D01*
X13339882Y-11655331D02*
X13349405Y-11674379D01*
X13349405Y-11674379D02*
X13358929Y-11712474D01*
X13358929Y-11712474D02*
X13358929Y-11760093D01*
X13358929Y-11760093D02*
X13349405Y-11798188D01*
X13349405Y-11798188D02*
X13339882Y-11817236D01*
X13339882Y-11817236D02*
X13330358Y-11826760D01*
X13330358Y-11826760D02*
X13311310Y-11836284D01*
X13311310Y-11836284D02*
X13292262Y-11836284D01*
X13292262Y-11836284D02*
X13273215Y-11826760D01*
X13273215Y-11826760D02*
X13263691Y-11817236D01*
X13263691Y-11817236D02*
X13254167Y-11798188D01*
X13254167Y-11798188D02*
X13244643Y-11760093D01*
X13244643Y-11760093D02*
X13244643Y-11712474D01*
X13244643Y-11712474D02*
X13254167Y-11674379D01*
X13254167Y-11674379D02*
X13263691Y-11655331D01*
X13263691Y-11655331D02*
X13273215Y-11645808D01*
X13273215Y-11645808D02*
X13292262Y-11636284D01*
X13482739Y-11636284D02*
X13501786Y-11636284D01*
X13501786Y-11636284D02*
X13520834Y-11645808D01*
X13520834Y-11645808D02*
X13530358Y-11655331D01*
X13530358Y-11655331D02*
X13539882Y-11674379D01*
X13539882Y-11674379D02*
X13549405Y-11712474D01*
X13549405Y-11712474D02*
X13549405Y-11760093D01*
X13549405Y-11760093D02*
X13539882Y-11798188D01*
X13539882Y-11798188D02*
X13530358Y-11817236D01*
X13530358Y-11817236D02*
X13520834Y-11826760D01*
X13520834Y-11826760D02*
X13501786Y-11836284D01*
X13501786Y-11836284D02*
X13482739Y-11836284D01*
X13482739Y-11836284D02*
X13463691Y-11826760D01*
X13463691Y-11826760D02*
X13454167Y-11817236D01*
X13454167Y-11817236D02*
X13444643Y-11798188D01*
X13444643Y-11798188D02*
X13435120Y-11760093D01*
X13435120Y-11760093D02*
X13435120Y-11712474D01*
X13435120Y-11712474D02*
X13444643Y-11674379D01*
X13444643Y-11674379D02*
X13454167Y-11655331D01*
X13454167Y-11655331D02*
X13463691Y-11645808D01*
X13463691Y-11645808D02*
X13482739Y-11636284D01*
X13635120Y-11836284D02*
X13635120Y-11702950D01*
X13635120Y-11721998D02*
X13644643Y-11712474D01*
X13644643Y-11712474D02*
X13663691Y-11702950D01*
X13663691Y-11702950D02*
X13692263Y-11702950D01*
X13692263Y-11702950D02*
X13711310Y-11712474D01*
X13711310Y-11712474D02*
X13720834Y-11731522D01*
X13720834Y-11731522D02*
X13720834Y-11836284D01*
X13720834Y-11731522D02*
X13730358Y-11712474D01*
X13730358Y-11712474D02*
X13749405Y-11702950D01*
X13749405Y-11702950D02*
X13777977Y-11702950D01*
X13777977Y-11702950D02*
X13797024Y-11712474D01*
X13797024Y-11712474D02*
X13806548Y-11731522D01*
X13806548Y-11731522D02*
X13806548Y-11836284D01*
X13901786Y-11836284D02*
X13901786Y-11702950D01*
X13901786Y-11721998D02*
X13911310Y-11712474D01*
X13911310Y-11712474D02*
X13930358Y-11702950D01*
X13930358Y-11702950D02*
X13958929Y-11702950D01*
X13958929Y-11702950D02*
X13977977Y-11712474D01*
X13977977Y-11712474D02*
X13987501Y-11731522D01*
X13987501Y-11731522D02*
X13987501Y-11836284D01*
X13987501Y-11731522D02*
X13997024Y-11712474D01*
X13997024Y-11712474D02*
X14016072Y-11702950D01*
X14016072Y-11702950D02*
X14044643Y-11702950D01*
X14044643Y-11702950D02*
X14063691Y-11712474D01*
X14063691Y-11712474D02*
X14073215Y-11731522D01*
X14073215Y-11731522D02*
X14073215Y-11836284D01*
X14463691Y-11626760D02*
X14292263Y-11883903D01*
X14720834Y-11636284D02*
X14739882Y-11636284D01*
X14739882Y-11636284D02*
X14758929Y-11645808D01*
X14758929Y-11645808D02*
X14768453Y-11655331D01*
X14768453Y-11655331D02*
X14777977Y-11674379D01*
X14777977Y-11674379D02*
X14787501Y-11712474D01*
X14787501Y-11712474D02*
X14787501Y-11760093D01*
X14787501Y-11760093D02*
X14777977Y-11798188D01*
X14777977Y-11798188D02*
X14768453Y-11817236D01*
X14768453Y-11817236D02*
X14758929Y-11826760D01*
X14758929Y-11826760D02*
X14739882Y-11836284D01*
X14739882Y-11836284D02*
X14720834Y-11836284D01*
X14720834Y-11836284D02*
X14701786Y-11826760D01*
X14701786Y-11826760D02*
X14692263Y-11817236D01*
X14692263Y-11817236D02*
X14682739Y-11798188D01*
X14682739Y-11798188D02*
X14673215Y-11760093D01*
X14673215Y-11760093D02*
X14673215Y-11712474D01*
X14673215Y-11712474D02*
X14682739Y-11674379D01*
X14682739Y-11674379D02*
X14692263Y-11655331D01*
X14692263Y-11655331D02*
X14701786Y-11645808D01*
X14701786Y-11645808D02*
X14720834Y-11636284D01*
X14873215Y-11817236D02*
X14882739Y-11826760D01*
X14882739Y-11826760D02*
X14873215Y-11836284D01*
X14873215Y-11836284D02*
X14863691Y-11826760D01*
X14863691Y-11826760D02*
X14873215Y-11817236D01*
X14873215Y-11817236D02*
X14873215Y-11836284D01*
X15006548Y-11636284D02*
X15025596Y-11636284D01*
X15025596Y-11636284D02*
X15044644Y-11645808D01*
X15044644Y-11645808D02*
X15054167Y-11655331D01*
X15054167Y-11655331D02*
X15063691Y-11674379D01*
X15063691Y-11674379D02*
X15073215Y-11712474D01*
X15073215Y-11712474D02*
X15073215Y-11760093D01*
X15073215Y-11760093D02*
X15063691Y-11798188D01*
X15063691Y-11798188D02*
X15054167Y-11817236D01*
X15054167Y-11817236D02*
X15044644Y-11826760D01*
X15044644Y-11826760D02*
X15025596Y-11836284D01*
X15025596Y-11836284D02*
X15006548Y-11836284D01*
X15006548Y-11836284D02*
X14987501Y-11826760D01*
X14987501Y-11826760D02*
X14977977Y-11817236D01*
X14977977Y-11817236D02*
X14968453Y-11798188D01*
X14968453Y-11798188D02*
X14958929Y-11760093D01*
X14958929Y-11760093D02*
X14958929Y-11712474D01*
X14958929Y-11712474D02*
X14968453Y-11674379D01*
X14968453Y-11674379D02*
X14977977Y-11655331D01*
X14977977Y-11655331D02*
X14987501Y-11645808D01*
X14987501Y-11645808D02*
X15006548Y-11636284D01*
X15139882Y-11636284D02*
X15263691Y-11636284D01*
X15263691Y-11636284D02*
X15197025Y-11712474D01*
X15197025Y-11712474D02*
X15225596Y-11712474D01*
X15225596Y-11712474D02*
X15244644Y-11721998D01*
X15244644Y-11721998D02*
X15254167Y-11731522D01*
X15254167Y-11731522D02*
X15263691Y-11750569D01*
X15263691Y-11750569D02*
X15263691Y-11798188D01*
X15263691Y-11798188D02*
X15254167Y-11817236D01*
X15254167Y-11817236D02*
X15244644Y-11826760D01*
X15244644Y-11826760D02*
X15225596Y-11836284D01*
X15225596Y-11836284D02*
X15168453Y-11836284D01*
X15168453Y-11836284D02*
X15149406Y-11826760D01*
X15149406Y-11826760D02*
X15139882Y-11817236D01*
X15454167Y-11836284D02*
X15339882Y-11836284D01*
X15397025Y-11836284D02*
X15397025Y-11636284D01*
X15397025Y-11636284D02*
X15377977Y-11664855D01*
X15377977Y-11664855D02*
X15358929Y-11683903D01*
X15358929Y-11683903D02*
X15339882Y-11693427D01*
X15635120Y-11636284D02*
X15539882Y-11636284D01*
X15539882Y-11636284D02*
X15530358Y-11731522D01*
X15530358Y-11731522D02*
X15539882Y-11721998D01*
X15539882Y-11721998D02*
X15558929Y-11712474D01*
X15558929Y-11712474D02*
X15606548Y-11712474D01*
X15606548Y-11712474D02*
X15625596Y-11721998D01*
X15625596Y-11721998D02*
X15635120Y-11731522D01*
X15635120Y-11731522D02*
X15644644Y-11750569D01*
X15644644Y-11750569D02*
X15644644Y-11798188D01*
X15644644Y-11798188D02*
X15635120Y-11817236D01*
X15635120Y-11817236D02*
X15625596Y-11826760D01*
X15625596Y-11826760D02*
X15606548Y-11836284D01*
X15606548Y-11836284D02*
X15558929Y-11836284D01*
X15558929Y-11836284D02*
X15539882Y-11826760D01*
X15539882Y-11826760D02*
X15530358Y-11817236D01*
X15720834Y-11636284D02*
X15720834Y-11674379D01*
X15797025Y-11636284D02*
X15797025Y-11674379D01*
X16092263Y-11912474D02*
X16082739Y-11902950D01*
X16082739Y-11902950D02*
X16063691Y-11874379D01*
X16063691Y-11874379D02*
X16054168Y-11855331D01*
X16054168Y-11855331D02*
X16044644Y-11826760D01*
X16044644Y-11826760D02*
X16035120Y-11779141D01*
X16035120Y-11779141D02*
X16035120Y-11741046D01*
X16035120Y-11741046D02*
X16044644Y-11693427D01*
X16044644Y-11693427D02*
X16054168Y-11664855D01*
X16054168Y-11664855D02*
X16063691Y-11645808D01*
X16063691Y-11645808D02*
X16082739Y-11617236D01*
X16082739Y-11617236D02*
X16092263Y-11607712D01*
X16273215Y-11836284D02*
X16158929Y-11836284D01*
X16216072Y-11836284D02*
X16216072Y-11636284D01*
X16216072Y-11636284D02*
X16197025Y-11664855D01*
X16197025Y-11664855D02*
X16177977Y-11683903D01*
X16177977Y-11683903D02*
X16158929Y-11693427D01*
X16444644Y-11702950D02*
X16444644Y-11836284D01*
X16397025Y-11626760D02*
X16349406Y-11769617D01*
X16349406Y-11769617D02*
X16473215Y-11769617D01*
X16701787Y-11836284D02*
X16701787Y-11636284D01*
X16787501Y-11836284D02*
X16787501Y-11731522D01*
X16787501Y-11731522D02*
X16777977Y-11712474D01*
X16777977Y-11712474D02*
X16758930Y-11702950D01*
X16758930Y-11702950D02*
X16730358Y-11702950D01*
X16730358Y-11702950D02*
X16711310Y-11712474D01*
X16711310Y-11712474D02*
X16701787Y-11721998D01*
X16911311Y-11836284D02*
X16892263Y-11826760D01*
X16892263Y-11826760D02*
X16882739Y-11817236D01*
X16882739Y-11817236D02*
X16873215Y-11798188D01*
X16873215Y-11798188D02*
X16873215Y-11741046D01*
X16873215Y-11741046D02*
X16882739Y-11721998D01*
X16882739Y-11721998D02*
X16892263Y-11712474D01*
X16892263Y-11712474D02*
X16911311Y-11702950D01*
X16911311Y-11702950D02*
X16939882Y-11702950D01*
X16939882Y-11702950D02*
X16958930Y-11712474D01*
X16958930Y-11712474D02*
X16968453Y-11721998D01*
X16968453Y-11721998D02*
X16977977Y-11741046D01*
X16977977Y-11741046D02*
X16977977Y-11798188D01*
X16977977Y-11798188D02*
X16968453Y-11817236D01*
X16968453Y-11817236D02*
X16958930Y-11826760D01*
X16958930Y-11826760D02*
X16939882Y-11836284D01*
X16939882Y-11836284D02*
X16911311Y-11836284D01*
X17092263Y-11836284D02*
X17073215Y-11826760D01*
X17073215Y-11826760D02*
X17063692Y-11807712D01*
X17063692Y-11807712D02*
X17063692Y-11636284D01*
X17244644Y-11826760D02*
X17225596Y-11836284D01*
X17225596Y-11836284D02*
X17187501Y-11836284D01*
X17187501Y-11836284D02*
X17168453Y-11826760D01*
X17168453Y-11826760D02*
X17158930Y-11807712D01*
X17158930Y-11807712D02*
X17158930Y-11731522D01*
X17158930Y-11731522D02*
X17168453Y-11712474D01*
X17168453Y-11712474D02*
X17187501Y-11702950D01*
X17187501Y-11702950D02*
X17225596Y-11702950D01*
X17225596Y-11702950D02*
X17244644Y-11712474D01*
X17244644Y-11712474D02*
X17254168Y-11731522D01*
X17254168Y-11731522D02*
X17254168Y-11750569D01*
X17254168Y-11750569D02*
X17158930Y-11769617D01*
X17330358Y-11826760D02*
X17349406Y-11836284D01*
X17349406Y-11836284D02*
X17387501Y-11836284D01*
X17387501Y-11836284D02*
X17406549Y-11826760D01*
X17406549Y-11826760D02*
X17416073Y-11807712D01*
X17416073Y-11807712D02*
X17416073Y-11798188D01*
X17416073Y-11798188D02*
X17406549Y-11779141D01*
X17406549Y-11779141D02*
X17387501Y-11769617D01*
X17387501Y-11769617D02*
X17358930Y-11769617D01*
X17358930Y-11769617D02*
X17339882Y-11760093D01*
X17339882Y-11760093D02*
X17330358Y-11741046D01*
X17330358Y-11741046D02*
X17330358Y-11731522D01*
X17330358Y-11731522D02*
X17339882Y-11712474D01*
X17339882Y-11712474D02*
X17358930Y-11702950D01*
X17358930Y-11702950D02*
X17387501Y-11702950D01*
X17387501Y-11702950D02*
X17406549Y-11712474D01*
X17482739Y-11912474D02*
X17492263Y-11902950D01*
X17492263Y-11902950D02*
X17511311Y-11874379D01*
X17511311Y-11874379D02*
X17520834Y-11855331D01*
X17520834Y-11855331D02*
X17530358Y-11826760D01*
X17530358Y-11826760D02*
X17539882Y-11779141D01*
X17539882Y-11779141D02*
X17539882Y-11741046D01*
X17539882Y-11741046D02*
X17530358Y-11693427D01*
X17530358Y-11693427D02*
X17520834Y-11664855D01*
X17520834Y-11664855D02*
X17511311Y-11645808D01*
X17511311Y-11645808D02*
X17492263Y-11617236D01*
X17492263Y-11617236D02*
X17482739Y-11607712D01*
D10*
X12517200Y-12008800D02*
G75*
G03*
X12517200Y-12008800I-50000J0D01*
G01*
D11*
X12882739Y-12100284D02*
X12768453Y-12100284D01*
X12825596Y-12100284D02*
X12825596Y-11900284D01*
X12825596Y-11900284D02*
X12806548Y-11928855D01*
X12806548Y-11928855D02*
X12787501Y-11947903D01*
X12787501Y-11947903D02*
X12768453Y-11957427D01*
X12968453Y-12081236D02*
X12977977Y-12090760D01*
X12977977Y-12090760D02*
X12968453Y-12100284D01*
X12968453Y-12100284D02*
X12958929Y-12090760D01*
X12958929Y-12090760D02*
X12968453Y-12081236D01*
X12968453Y-12081236D02*
X12968453Y-12100284D01*
X13101786Y-11900284D02*
X13120834Y-11900284D01*
X13120834Y-11900284D02*
X13139882Y-11909808D01*
X13139882Y-11909808D02*
X13149405Y-11919331D01*
X13149405Y-11919331D02*
X13158929Y-11938379D01*
X13158929Y-11938379D02*
X13168453Y-11976474D01*
X13168453Y-11976474D02*
X13168453Y-12024093D01*
X13168453Y-12024093D02*
X13158929Y-12062188D01*
X13158929Y-12062188D02*
X13149405Y-12081236D01*
X13149405Y-12081236D02*
X13139882Y-12090760D01*
X13139882Y-12090760D02*
X13120834Y-12100284D01*
X13120834Y-12100284D02*
X13101786Y-12100284D01*
X13101786Y-12100284D02*
X13082739Y-12090760D01*
X13082739Y-12090760D02*
X13073215Y-12081236D01*
X13073215Y-12081236D02*
X13063691Y-12062188D01*
X13063691Y-12062188D02*
X13054167Y-12024093D01*
X13054167Y-12024093D02*
X13054167Y-11976474D01*
X13054167Y-11976474D02*
X13063691Y-11938379D01*
X13063691Y-11938379D02*
X13073215Y-11919331D01*
X13073215Y-11919331D02*
X13082739Y-11909808D01*
X13082739Y-11909808D02*
X13101786Y-11900284D01*
X13292262Y-11900284D02*
X13311310Y-11900284D01*
X13311310Y-11900284D02*
X13330358Y-11909808D01*
X13330358Y-11909808D02*
X13339882Y-11919331D01*
X13339882Y-11919331D02*
X13349405Y-11938379D01*
X13349405Y-11938379D02*
X13358929Y-11976474D01*
X13358929Y-11976474D02*
X13358929Y-12024093D01*
X13358929Y-12024093D02*
X13349405Y-12062188D01*
X13349405Y-12062188D02*
X13339882Y-12081236D01*
X13339882Y-12081236D02*
X13330358Y-12090760D01*
X13330358Y-12090760D02*
X13311310Y-12100284D01*
X13311310Y-12100284D02*
X13292262Y-12100284D01*
X13292262Y-12100284D02*
X13273215Y-12090760D01*
X13273215Y-12090760D02*
X13263691Y-12081236D01*
X13263691Y-12081236D02*
X13254167Y-12062188D01*
X13254167Y-12062188D02*
X13244643Y-12024093D01*
X13244643Y-12024093D02*
X13244643Y-11976474D01*
X13244643Y-11976474D02*
X13254167Y-11938379D01*
X13254167Y-11938379D02*
X13263691Y-11919331D01*
X13263691Y-11919331D02*
X13273215Y-11909808D01*
X13273215Y-11909808D02*
X13292262Y-11900284D01*
X13482739Y-11900284D02*
X13501786Y-11900284D01*
X13501786Y-11900284D02*
X13520834Y-11909808D01*
X13520834Y-11909808D02*
X13530358Y-11919331D01*
X13530358Y-11919331D02*
X13539882Y-11938379D01*
X13539882Y-11938379D02*
X13549405Y-11976474D01*
X13549405Y-11976474D02*
X13549405Y-12024093D01*
X13549405Y-12024093D02*
X13539882Y-12062188D01*
X13539882Y-12062188D02*
X13530358Y-12081236D01*
X13530358Y-12081236D02*
X13520834Y-12090760D01*
X13520834Y-12090760D02*
X13501786Y-12100284D01*
X13501786Y-12100284D02*
X13482739Y-12100284D01*
X13482739Y-12100284D02*
X13463691Y-12090760D01*
X13463691Y-12090760D02*
X13454167Y-12081236D01*
X13454167Y-12081236D02*
X13444643Y-12062188D01*
X13444643Y-12062188D02*
X13435120Y-12024093D01*
X13435120Y-12024093D02*
X13435120Y-11976474D01*
X13435120Y-11976474D02*
X13444643Y-11938379D01*
X13444643Y-11938379D02*
X13454167Y-11919331D01*
X13454167Y-11919331D02*
X13463691Y-11909808D01*
X13463691Y-11909808D02*
X13482739Y-11900284D01*
X13635120Y-12100284D02*
X13635120Y-11966950D01*
X13635120Y-11985998D02*
X13644643Y-11976474D01*
X13644643Y-11976474D02*
X13663691Y-11966950D01*
X13663691Y-11966950D02*
X13692263Y-11966950D01*
X13692263Y-11966950D02*
X13711310Y-11976474D01*
X13711310Y-11976474D02*
X13720834Y-11995522D01*
X13720834Y-11995522D02*
X13720834Y-12100284D01*
X13720834Y-11995522D02*
X13730358Y-11976474D01*
X13730358Y-11976474D02*
X13749405Y-11966950D01*
X13749405Y-11966950D02*
X13777977Y-11966950D01*
X13777977Y-11966950D02*
X13797024Y-11976474D01*
X13797024Y-11976474D02*
X13806548Y-11995522D01*
X13806548Y-11995522D02*
X13806548Y-12100284D01*
X13901786Y-12100284D02*
X13901786Y-11966950D01*
X13901786Y-11985998D02*
X13911310Y-11976474D01*
X13911310Y-11976474D02*
X13930358Y-11966950D01*
X13930358Y-11966950D02*
X13958929Y-11966950D01*
X13958929Y-11966950D02*
X13977977Y-11976474D01*
X13977977Y-11976474D02*
X13987501Y-11995522D01*
X13987501Y-11995522D02*
X13987501Y-12100284D01*
X13987501Y-11995522D02*
X13997024Y-11976474D01*
X13997024Y-11976474D02*
X14016072Y-11966950D01*
X14016072Y-11966950D02*
X14044643Y-11966950D01*
X14044643Y-11966950D02*
X14063691Y-11976474D01*
X14063691Y-11976474D02*
X14073215Y-11995522D01*
X14073215Y-11995522D02*
X14073215Y-12100284D01*
X14463691Y-11890760D02*
X14292263Y-12147903D01*
X14720834Y-11900284D02*
X14739882Y-11900284D01*
X14739882Y-11900284D02*
X14758929Y-11909808D01*
X14758929Y-11909808D02*
X14768453Y-11919331D01*
X14768453Y-11919331D02*
X14777977Y-11938379D01*
X14777977Y-11938379D02*
X14787501Y-11976474D01*
X14787501Y-11976474D02*
X14787501Y-12024093D01*
X14787501Y-12024093D02*
X14777977Y-12062188D01*
X14777977Y-12062188D02*
X14768453Y-12081236D01*
X14768453Y-12081236D02*
X14758929Y-12090760D01*
X14758929Y-12090760D02*
X14739882Y-12100284D01*
X14739882Y-12100284D02*
X14720834Y-12100284D01*
X14720834Y-12100284D02*
X14701786Y-12090760D01*
X14701786Y-12090760D02*
X14692263Y-12081236D01*
X14692263Y-12081236D02*
X14682739Y-12062188D01*
X14682739Y-12062188D02*
X14673215Y-12024093D01*
X14673215Y-12024093D02*
X14673215Y-11976474D01*
X14673215Y-11976474D02*
X14682739Y-11938379D01*
X14682739Y-11938379D02*
X14692263Y-11919331D01*
X14692263Y-11919331D02*
X14701786Y-11909808D01*
X14701786Y-11909808D02*
X14720834Y-11900284D01*
X14873215Y-12081236D02*
X14882739Y-12090760D01*
X14882739Y-12090760D02*
X14873215Y-12100284D01*
X14873215Y-12100284D02*
X14863691Y-12090760D01*
X14863691Y-12090760D02*
X14873215Y-12081236D01*
X14873215Y-12081236D02*
X14873215Y-12100284D01*
X15006548Y-11900284D02*
X15025596Y-11900284D01*
X15025596Y-11900284D02*
X15044644Y-11909808D01*
X15044644Y-11909808D02*
X15054167Y-11919331D01*
X15054167Y-11919331D02*
X15063691Y-11938379D01*
X15063691Y-11938379D02*
X15073215Y-11976474D01*
X15073215Y-11976474D02*
X15073215Y-12024093D01*
X15073215Y-12024093D02*
X15063691Y-12062188D01*
X15063691Y-12062188D02*
X15054167Y-12081236D01*
X15054167Y-12081236D02*
X15044644Y-12090760D01*
X15044644Y-12090760D02*
X15025596Y-12100284D01*
X15025596Y-12100284D02*
X15006548Y-12100284D01*
X15006548Y-12100284D02*
X14987501Y-12090760D01*
X14987501Y-12090760D02*
X14977977Y-12081236D01*
X14977977Y-12081236D02*
X14968453Y-12062188D01*
X14968453Y-12062188D02*
X14958929Y-12024093D01*
X14958929Y-12024093D02*
X14958929Y-11976474D01*
X14958929Y-11976474D02*
X14968453Y-11938379D01*
X14968453Y-11938379D02*
X14977977Y-11919331D01*
X14977977Y-11919331D02*
X14987501Y-11909808D01*
X14987501Y-11909808D02*
X15006548Y-11900284D01*
X15139882Y-11900284D02*
X15263691Y-11900284D01*
X15263691Y-11900284D02*
X15197025Y-11976474D01*
X15197025Y-11976474D02*
X15225596Y-11976474D01*
X15225596Y-11976474D02*
X15244644Y-11985998D01*
X15244644Y-11985998D02*
X15254167Y-11995522D01*
X15254167Y-11995522D02*
X15263691Y-12014569D01*
X15263691Y-12014569D02*
X15263691Y-12062188D01*
X15263691Y-12062188D02*
X15254167Y-12081236D01*
X15254167Y-12081236D02*
X15244644Y-12090760D01*
X15244644Y-12090760D02*
X15225596Y-12100284D01*
X15225596Y-12100284D02*
X15168453Y-12100284D01*
X15168453Y-12100284D02*
X15149406Y-12090760D01*
X15149406Y-12090760D02*
X15139882Y-12081236D01*
X15358929Y-12100284D02*
X15397025Y-12100284D01*
X15397025Y-12100284D02*
X15416072Y-12090760D01*
X15416072Y-12090760D02*
X15425596Y-12081236D01*
X15425596Y-12081236D02*
X15444644Y-12052665D01*
X15444644Y-12052665D02*
X15454167Y-12014569D01*
X15454167Y-12014569D02*
X15454167Y-11938379D01*
X15454167Y-11938379D02*
X15444644Y-11919331D01*
X15444644Y-11919331D02*
X15435120Y-11909808D01*
X15435120Y-11909808D02*
X15416072Y-11900284D01*
X15416072Y-11900284D02*
X15377977Y-11900284D01*
X15377977Y-11900284D02*
X15358929Y-11909808D01*
X15358929Y-11909808D02*
X15349406Y-11919331D01*
X15349406Y-11919331D02*
X15339882Y-11938379D01*
X15339882Y-11938379D02*
X15339882Y-11985998D01*
X15339882Y-11985998D02*
X15349406Y-12005046D01*
X15349406Y-12005046D02*
X15358929Y-12014569D01*
X15358929Y-12014569D02*
X15377977Y-12024093D01*
X15377977Y-12024093D02*
X15416072Y-12024093D01*
X15416072Y-12024093D02*
X15435120Y-12014569D01*
X15435120Y-12014569D02*
X15444644Y-12005046D01*
X15444644Y-12005046D02*
X15454167Y-11985998D01*
X15625596Y-11966950D02*
X15625596Y-12100284D01*
X15577977Y-11890760D02*
X15530358Y-12033617D01*
X15530358Y-12033617D02*
X15654167Y-12033617D01*
X15720834Y-11900284D02*
X15720834Y-11938379D01*
X15797025Y-11900284D02*
X15797025Y-11938379D01*
X16092263Y-12176474D02*
X16082739Y-12166950D01*
X16082739Y-12166950D02*
X16063691Y-12138379D01*
X16063691Y-12138379D02*
X16054168Y-12119331D01*
X16054168Y-12119331D02*
X16044644Y-12090760D01*
X16044644Y-12090760D02*
X16035120Y-12043141D01*
X16035120Y-12043141D02*
X16035120Y-12005046D01*
X16035120Y-12005046D02*
X16044644Y-11957427D01*
X16044644Y-11957427D02*
X16054168Y-11928855D01*
X16054168Y-11928855D02*
X16063691Y-11909808D01*
X16063691Y-11909808D02*
X16082739Y-11881236D01*
X16082739Y-11881236D02*
X16092263Y-11871712D01*
X16273215Y-12100284D02*
X16158929Y-12100284D01*
X16216072Y-12100284D02*
X16216072Y-11900284D01*
X16216072Y-11900284D02*
X16197025Y-11928855D01*
X16197025Y-11928855D02*
X16177977Y-11947903D01*
X16177977Y-11947903D02*
X16158929Y-11957427D01*
X16444644Y-11966950D02*
X16444644Y-12100284D01*
X16397025Y-11890760D02*
X16349406Y-12033617D01*
X16349406Y-12033617D02*
X16473215Y-12033617D01*
X16701787Y-12100284D02*
X16701787Y-11900284D01*
X16787501Y-12100284D02*
X16787501Y-11995522D01*
X16787501Y-11995522D02*
X16777977Y-11976474D01*
X16777977Y-11976474D02*
X16758930Y-11966950D01*
X16758930Y-11966950D02*
X16730358Y-11966950D01*
X16730358Y-11966950D02*
X16711310Y-11976474D01*
X16711310Y-11976474D02*
X16701787Y-11985998D01*
X16911311Y-12100284D02*
X16892263Y-12090760D01*
X16892263Y-12090760D02*
X16882739Y-12081236D01*
X16882739Y-12081236D02*
X16873215Y-12062188D01*
X16873215Y-12062188D02*
X16873215Y-12005046D01*
X16873215Y-12005046D02*
X16882739Y-11985998D01*
X16882739Y-11985998D02*
X16892263Y-11976474D01*
X16892263Y-11976474D02*
X16911311Y-11966950D01*
X16911311Y-11966950D02*
X16939882Y-11966950D01*
X16939882Y-11966950D02*
X16958930Y-11976474D01*
X16958930Y-11976474D02*
X16968453Y-11985998D01*
X16968453Y-11985998D02*
X16977977Y-12005046D01*
X16977977Y-12005046D02*
X16977977Y-12062188D01*
X16977977Y-12062188D02*
X16968453Y-12081236D01*
X16968453Y-12081236D02*
X16958930Y-12090760D01*
X16958930Y-12090760D02*
X16939882Y-12100284D01*
X16939882Y-12100284D02*
X16911311Y-12100284D01*
X17092263Y-12100284D02*
X17073215Y-12090760D01*
X17073215Y-12090760D02*
X17063692Y-12071712D01*
X17063692Y-12071712D02*
X17063692Y-11900284D01*
X17244644Y-12090760D02*
X17225596Y-12100284D01*
X17225596Y-12100284D02*
X17187501Y-12100284D01*
X17187501Y-12100284D02*
X17168453Y-12090760D01*
X17168453Y-12090760D02*
X17158930Y-12071712D01*
X17158930Y-12071712D02*
X17158930Y-11995522D01*
X17158930Y-11995522D02*
X17168453Y-11976474D01*
X17168453Y-11976474D02*
X17187501Y-11966950D01*
X17187501Y-11966950D02*
X17225596Y-11966950D01*
X17225596Y-11966950D02*
X17244644Y-11976474D01*
X17244644Y-11976474D02*
X17254168Y-11995522D01*
X17254168Y-11995522D02*
X17254168Y-12014569D01*
X17254168Y-12014569D02*
X17158930Y-12033617D01*
X17330358Y-12090760D02*
X17349406Y-12100284D01*
X17349406Y-12100284D02*
X17387501Y-12100284D01*
X17387501Y-12100284D02*
X17406549Y-12090760D01*
X17406549Y-12090760D02*
X17416073Y-12071712D01*
X17416073Y-12071712D02*
X17416073Y-12062188D01*
X17416073Y-12062188D02*
X17406549Y-12043141D01*
X17406549Y-12043141D02*
X17387501Y-12033617D01*
X17387501Y-12033617D02*
X17358930Y-12033617D01*
X17358930Y-12033617D02*
X17339882Y-12024093D01*
X17339882Y-12024093D02*
X17330358Y-12005046D01*
X17330358Y-12005046D02*
X17330358Y-11995522D01*
X17330358Y-11995522D02*
X17339882Y-11976474D01*
X17339882Y-11976474D02*
X17358930Y-11966950D01*
X17358930Y-11966950D02*
X17387501Y-11966950D01*
X17387501Y-11966950D02*
X17406549Y-11976474D01*
X17482739Y-12176474D02*
X17492263Y-12166950D01*
X17492263Y-12166950D02*
X17511311Y-12138379D01*
X17511311Y-12138379D02*
X17520834Y-12119331D01*
X17520834Y-12119331D02*
X17530358Y-12090760D01*
X17530358Y-12090760D02*
X17539882Y-12043141D01*
X17539882Y-12043141D02*
X17539882Y-12005046D01*
X17539882Y-12005046D02*
X17530358Y-11957427D01*
X17530358Y-11957427D02*
X17520834Y-11928855D01*
X17520834Y-11928855D02*
X17511311Y-11909808D01*
X17511311Y-11909808D02*
X17492263Y-11881236D01*
X17492263Y-11881236D02*
X17482739Y-11871712D01*
M02*
