G04 #@! TF.GenerationSoftware,KiCad,Pcbnew,7.0.9-7.0.9~ubuntu20.04.1*
G04 #@! TF.CreationDate,2023-11-25T19:42:27+01:00*
G04 #@! TF.ProjectId,kicad-kria-jtag,6b696361-642d-46b7-9269-612d6a746167,1.0*
G04 #@! TF.SameCoordinates,Original*
G04 #@! TF.FileFunction,Copper,L1,Top*
G04 #@! TF.FilePolarity,Positive*
%FSLAX46Y46*%
G04 Gerber Fmt 4.6, Leading zero omitted, Abs format (unit mm)*
G04 Created by KiCad (PCBNEW 7.0.9-7.0.9~ubuntu20.04.1) date 2023-11-25 19:42:27*
%MOMM*%
%LPD*%
G01*
G04 APERTURE LIST*
G04 Aperture macros list*
%AMRoundRect*
0 Rectangle with rounded corners*
0 $1 Rounding radius*
0 $2 $3 $4 $5 $6 $7 $8 $9 X,Y pos of 4 corners*
0 Add a 4 corners polygon primitive as box body*
4,1,4,$2,$3,$4,$5,$6,$7,$8,$9,$2,$3,0*
0 Add four circle primitives for the rounded corners*
1,1,$1+$1,$2,$3*
1,1,$1+$1,$4,$5*
1,1,$1+$1,$6,$7*
1,1,$1+$1,$8,$9*
0 Add four rect primitives between the rounded corners*
20,1,$1+$1,$2,$3,$4,$5,0*
20,1,$1+$1,$4,$5,$6,$7,0*
20,1,$1+$1,$6,$7,$8,$9,0*
20,1,$1+$1,$8,$9,$2,$3,0*%
G04 Aperture macros list end*
G04 #@! TA.AperFunction,ComponentPad*
%ADD10O,1.350000X1.350000*%
G04 #@! TD*
G04 #@! TA.AperFunction,ComponentPad*
%ADD11R,1.350000X1.350000*%
G04 #@! TD*
G04 #@! TA.AperFunction,ComponentPad*
%ADD12C,1.700000*%
G04 #@! TD*
G04 #@! TA.AperFunction,ComponentPad*
%ADD13RoundRect,0.250000X0.600000X-0.600000X0.600000X0.600000X-0.600000X0.600000X-0.600000X-0.600000X0*%
G04 #@! TD*
G04 APERTURE END LIST*
D10*
X145192000Y-109188000D03*
X145192000Y-107188000D03*
X143192000Y-109188000D03*
X143192000Y-107188000D03*
X141192000Y-109188000D03*
X141192000Y-107188000D03*
X139192000Y-109188000D03*
X139192000Y-107188000D03*
X137192000Y-109188000D03*
X137192000Y-107188000D03*
X135192000Y-109188000D03*
X135192000Y-107188000D03*
X133192000Y-109188000D03*
D11*
X133192000Y-107188000D03*
D12*
X146812000Y-91948000D03*
X146812000Y-94488000D03*
X144272000Y-91948000D03*
X144272000Y-94488000D03*
X141732000Y-91948000D03*
X141732000Y-94488000D03*
X139192000Y-91948000D03*
X139192000Y-94488000D03*
X136652000Y-91948000D03*
X136652000Y-94488000D03*
X134112000Y-91948000D03*
X134112000Y-94488000D03*
X131572000Y-91948000D03*
D13*
X131572000Y-94488000D03*
G04 #@! TA.AperFunction,Conductor*
G36*
X134864359Y-106949955D02*
G01*
X134806835Y-107062852D01*
X134787014Y-107188000D01*
X134806835Y-107313148D01*
X134864359Y-107426045D01*
X134876314Y-107438000D01*
X133507686Y-107438000D01*
X133519641Y-107426045D01*
X133577165Y-107313148D01*
X133596986Y-107188000D01*
X133577165Y-107062852D01*
X133519641Y-106949955D01*
X133507686Y-106938000D01*
X134876314Y-106938000D01*
X134864359Y-106949955D01*
G37*
G04 #@! TD.AperFunction*
G04 #@! TA.AperFunction,Conductor*
G36*
X136864359Y-106949955D02*
G01*
X136806835Y-107062852D01*
X136787014Y-107188000D01*
X136806835Y-107313148D01*
X136864359Y-107426045D01*
X136876314Y-107438000D01*
X135507686Y-107438000D01*
X135519641Y-107426045D01*
X135577165Y-107313148D01*
X135596986Y-107188000D01*
X135577165Y-107062852D01*
X135519641Y-106949955D01*
X135507686Y-106938000D01*
X136876314Y-106938000D01*
X136864359Y-106949955D01*
G37*
G04 #@! TD.AperFunction*
G04 #@! TA.AperFunction,Conductor*
G36*
X138864359Y-106949955D02*
G01*
X138806835Y-107062852D01*
X138787014Y-107188000D01*
X138806835Y-107313148D01*
X138864359Y-107426045D01*
X138876314Y-107438000D01*
X137507686Y-107438000D01*
X137519641Y-107426045D01*
X137577165Y-107313148D01*
X137596986Y-107188000D01*
X137577165Y-107062852D01*
X137519641Y-106949955D01*
X137507686Y-106938000D01*
X138876314Y-106938000D01*
X138864359Y-106949955D01*
G37*
G04 #@! TD.AperFunction*
G04 #@! TA.AperFunction,Conductor*
G36*
X140864359Y-106949955D02*
G01*
X140806835Y-107062852D01*
X140787014Y-107188000D01*
X140806835Y-107313148D01*
X140864359Y-107426045D01*
X140876314Y-107438000D01*
X139507686Y-107438000D01*
X139519641Y-107426045D01*
X139577165Y-107313148D01*
X139596986Y-107188000D01*
X139577165Y-107062852D01*
X139519641Y-106949955D01*
X139507686Y-106938000D01*
X140876314Y-106938000D01*
X140864359Y-106949955D01*
G37*
G04 #@! TD.AperFunction*
G04 #@! TA.AperFunction,Conductor*
G36*
X142864359Y-106949955D02*
G01*
X142806835Y-107062852D01*
X142787014Y-107188000D01*
X142806835Y-107313148D01*
X142864359Y-107426045D01*
X142876314Y-107438000D01*
X141507686Y-107438000D01*
X141519641Y-107426045D01*
X141577165Y-107313148D01*
X141596986Y-107188000D01*
X141577165Y-107062852D01*
X141519641Y-106949955D01*
X141507686Y-106938000D01*
X142876314Y-106938000D01*
X142864359Y-106949955D01*
G37*
G04 #@! TD.AperFunction*
G04 #@! TA.AperFunction,Conductor*
G36*
X144864359Y-106949955D02*
G01*
X144806835Y-107062852D01*
X144787014Y-107188000D01*
X144806835Y-107313148D01*
X144864359Y-107426045D01*
X144876314Y-107438000D01*
X143507686Y-107438000D01*
X143519641Y-107426045D01*
X143577165Y-107313148D01*
X143596986Y-107188000D01*
X143577165Y-107062852D01*
X143519641Y-106949955D01*
X143507686Y-106938000D01*
X144876314Y-106938000D01*
X144864359Y-106949955D01*
G37*
G04 #@! TD.AperFunction*
G04 #@! TA.AperFunction,Conductor*
G36*
X133652507Y-94278156D02*
G01*
X133612000Y-94416111D01*
X133612000Y-94559889D01*
X133652507Y-94697844D01*
X133678314Y-94738000D01*
X132005686Y-94738000D01*
X132031493Y-94697844D01*
X132072000Y-94559889D01*
X132072000Y-94416111D01*
X132031493Y-94278156D01*
X132005686Y-94238000D01*
X133678314Y-94238000D01*
X133652507Y-94278156D01*
G37*
G04 #@! TD.AperFunction*
G04 #@! TA.AperFunction,Conductor*
G36*
X136192507Y-94278156D02*
G01*
X136152000Y-94416111D01*
X136152000Y-94559889D01*
X136192507Y-94697844D01*
X136218314Y-94738000D01*
X134545686Y-94738000D01*
X134571493Y-94697844D01*
X134612000Y-94559889D01*
X134612000Y-94416111D01*
X134571493Y-94278156D01*
X134545686Y-94238000D01*
X136218314Y-94238000D01*
X136192507Y-94278156D01*
G37*
G04 #@! TD.AperFunction*
G04 #@! TA.AperFunction,Conductor*
G36*
X138732507Y-94278156D02*
G01*
X138692000Y-94416111D01*
X138692000Y-94559889D01*
X138732507Y-94697844D01*
X138758314Y-94738000D01*
X137085686Y-94738000D01*
X137111493Y-94697844D01*
X137152000Y-94559889D01*
X137152000Y-94416111D01*
X137111493Y-94278156D01*
X137085686Y-94238000D01*
X138758314Y-94238000D01*
X138732507Y-94278156D01*
G37*
G04 #@! TD.AperFunction*
G04 #@! TA.AperFunction,Conductor*
G36*
X141272507Y-94278156D02*
G01*
X141232000Y-94416111D01*
X141232000Y-94559889D01*
X141272507Y-94697844D01*
X141298314Y-94738000D01*
X139625686Y-94738000D01*
X139651493Y-94697844D01*
X139692000Y-94559889D01*
X139692000Y-94416111D01*
X139651493Y-94278156D01*
X139625686Y-94238000D01*
X141298314Y-94238000D01*
X141272507Y-94278156D01*
G37*
G04 #@! TD.AperFunction*
G04 #@! TA.AperFunction,Conductor*
G36*
X143812507Y-94278156D02*
G01*
X143772000Y-94416111D01*
X143772000Y-94559889D01*
X143812507Y-94697844D01*
X143838314Y-94738000D01*
X142165686Y-94738000D01*
X142191493Y-94697844D01*
X142232000Y-94559889D01*
X142232000Y-94416111D01*
X142191493Y-94278156D01*
X142165686Y-94238000D01*
X143838314Y-94238000D01*
X143812507Y-94278156D01*
G37*
G04 #@! TD.AperFunction*
G04 #@! TA.AperFunction,Conductor*
G36*
X146352507Y-94278156D02*
G01*
X146312000Y-94416111D01*
X146312000Y-94559889D01*
X146352507Y-94697844D01*
X146378314Y-94738000D01*
X144705686Y-94738000D01*
X144731493Y-94697844D01*
X144772000Y-94559889D01*
X144772000Y-94416111D01*
X144731493Y-94278156D01*
X144705686Y-94238000D01*
X146378314Y-94238000D01*
X146352507Y-94278156D01*
G37*
G04 #@! TD.AperFunction*
G04 #@! TA.AperFunction,Conductor*
G36*
X152403034Y-86868799D02*
G01*
X152410744Y-86869558D01*
X152435266Y-86871973D01*
X152545728Y-86884419D01*
X152567823Y-86888975D01*
X152621045Y-86905120D01*
X152700132Y-86932794D01*
X152717607Y-86940467D01*
X152770933Y-86968970D01*
X152774641Y-86971123D01*
X152836057Y-87009712D01*
X152844257Y-87014865D01*
X152850609Y-87019439D01*
X152902264Y-87061831D01*
X152906765Y-87065910D01*
X152964087Y-87123232D01*
X152968167Y-87127734D01*
X153010559Y-87179389D01*
X153015133Y-87185741D01*
X153058862Y-87255334D01*
X153061039Y-87259085D01*
X153066244Y-87268821D01*
X153089528Y-87312384D01*
X153097210Y-87329881D01*
X153124881Y-87408960D01*
X153141021Y-87462167D01*
X153145580Y-87484278D01*
X153158027Y-87594742D01*
X153161201Y-87626968D01*
X153161500Y-87633050D01*
X153161500Y-102037508D01*
X153141815Y-102104547D01*
X153101297Y-102143837D01*
X146819362Y-105912997D01*
X146813009Y-105916217D01*
X146811510Y-105917723D01*
X146810956Y-105919962D01*
X146811500Y-105927263D01*
X146811500Y-110486517D01*
X146811110Y-110493465D01*
X146808532Y-110516340D01*
X146797810Y-110597773D01*
X146791913Y-110622540D01*
X146779767Y-110657249D01*
X146778527Y-110660499D01*
X146755564Y-110715936D01*
X146745998Y-110734454D01*
X146723731Y-110769892D01*
X146720419Y-110774653D01*
X146682901Y-110823547D01*
X146677548Y-110829650D01*
X146643650Y-110863548D01*
X146637547Y-110868901D01*
X146588653Y-110906419D01*
X146583892Y-110909731D01*
X146548454Y-110931998D01*
X146529936Y-110941564D01*
X146474499Y-110964527D01*
X146471249Y-110965767D01*
X146436540Y-110977913D01*
X146411773Y-110983810D01*
X146330340Y-110994532D01*
X146322728Y-110995389D01*
X146307457Y-110997110D01*
X146300517Y-110997500D01*
X132083482Y-110997500D01*
X132076543Y-110997110D01*
X132057079Y-110994917D01*
X132053659Y-110994532D01*
X131972225Y-110983810D01*
X131947458Y-110977913D01*
X131912749Y-110965767D01*
X131909499Y-110964527D01*
X131854062Y-110941564D01*
X131835544Y-110931998D01*
X131800106Y-110909731D01*
X131795352Y-110906424D01*
X131746446Y-110868897D01*
X131740348Y-110863548D01*
X131706450Y-110829650D01*
X131701104Y-110823555D01*
X131663569Y-110774638D01*
X131660277Y-110769906D01*
X131637997Y-110734449D01*
X131628437Y-110715941D01*
X131605458Y-110660466D01*
X131604231Y-110657249D01*
X131592082Y-110622529D01*
X131586188Y-110597770D01*
X131575468Y-110516340D01*
X131573570Y-110499498D01*
X131572890Y-110493459D01*
X131572500Y-110486513D01*
X131572500Y-109188000D01*
X132011464Y-109188000D01*
X132031564Y-109404918D01*
X132031564Y-109404920D01*
X132031565Y-109404923D01*
X132091183Y-109614459D01*
X132188288Y-109809472D01*
X132319573Y-109983322D01*
X132480568Y-110130088D01*
X132480575Y-110130092D01*
X132480576Y-110130093D01*
X132665786Y-110244770D01*
X132665792Y-110244773D01*
X132688664Y-110253633D01*
X132868931Y-110323470D01*
X133083074Y-110363500D01*
X133083076Y-110363500D01*
X133300924Y-110363500D01*
X133300926Y-110363500D01*
X133515069Y-110323470D01*
X133718210Y-110244772D01*
X133903432Y-110130088D01*
X134064427Y-109983322D01*
X134093047Y-109945422D01*
X134149153Y-109903787D01*
X134218865Y-109899094D01*
X134280048Y-109932836D01*
X134290946Y-109945414D01*
X134319573Y-109983322D01*
X134480568Y-110130088D01*
X134480575Y-110130092D01*
X134480576Y-110130093D01*
X134665786Y-110244770D01*
X134665792Y-110244773D01*
X134688664Y-110253633D01*
X134868931Y-110323470D01*
X135083074Y-110363500D01*
X135083076Y-110363500D01*
X135300924Y-110363500D01*
X135300926Y-110363500D01*
X135515069Y-110323470D01*
X135718210Y-110244772D01*
X135903432Y-110130088D01*
X136064427Y-109983322D01*
X136093047Y-109945422D01*
X136149153Y-109903787D01*
X136218865Y-109899094D01*
X136280048Y-109932836D01*
X136290946Y-109945414D01*
X136319573Y-109983322D01*
X136480568Y-110130088D01*
X136480575Y-110130092D01*
X136480576Y-110130093D01*
X136665786Y-110244770D01*
X136665792Y-110244773D01*
X136688664Y-110253633D01*
X136868931Y-110323470D01*
X137083074Y-110363500D01*
X137083076Y-110363500D01*
X137300924Y-110363500D01*
X137300926Y-110363500D01*
X137515069Y-110323470D01*
X137718210Y-110244772D01*
X137903432Y-110130088D01*
X138064427Y-109983322D01*
X138093047Y-109945422D01*
X138149153Y-109903787D01*
X138218865Y-109899094D01*
X138280048Y-109932836D01*
X138290946Y-109945414D01*
X138319573Y-109983322D01*
X138480568Y-110130088D01*
X138480575Y-110130092D01*
X138480576Y-110130093D01*
X138665786Y-110244770D01*
X138665792Y-110244773D01*
X138688664Y-110253633D01*
X138868931Y-110323470D01*
X139083074Y-110363500D01*
X139083076Y-110363500D01*
X139300924Y-110363500D01*
X139300926Y-110363500D01*
X139515069Y-110323470D01*
X139718210Y-110244772D01*
X139903432Y-110130088D01*
X140064427Y-109983322D01*
X140093047Y-109945422D01*
X140149153Y-109903787D01*
X140218865Y-109899094D01*
X140280048Y-109932836D01*
X140290946Y-109945414D01*
X140319573Y-109983322D01*
X140480568Y-110130088D01*
X140480575Y-110130092D01*
X140480576Y-110130093D01*
X140665786Y-110244770D01*
X140665792Y-110244773D01*
X140688664Y-110253633D01*
X140868931Y-110323470D01*
X141083074Y-110363500D01*
X141083076Y-110363500D01*
X141300924Y-110363500D01*
X141300926Y-110363500D01*
X141515069Y-110323470D01*
X141718210Y-110244772D01*
X141903432Y-110130088D01*
X142064427Y-109983322D01*
X142093047Y-109945422D01*
X142149153Y-109903787D01*
X142218865Y-109899094D01*
X142280048Y-109932836D01*
X142290946Y-109945414D01*
X142319573Y-109983322D01*
X142480568Y-110130088D01*
X142480575Y-110130092D01*
X142480576Y-110130093D01*
X142665786Y-110244770D01*
X142665792Y-110244773D01*
X142688664Y-110253633D01*
X142868931Y-110323470D01*
X143083074Y-110363500D01*
X143083076Y-110363500D01*
X143300924Y-110363500D01*
X143300926Y-110363500D01*
X143515069Y-110323470D01*
X143718210Y-110244772D01*
X143903432Y-110130088D01*
X144064427Y-109983322D01*
X144093047Y-109945422D01*
X144149153Y-109903787D01*
X144218865Y-109899094D01*
X144280048Y-109932836D01*
X144290946Y-109945414D01*
X144319573Y-109983322D01*
X144480568Y-110130088D01*
X144480575Y-110130092D01*
X144480576Y-110130093D01*
X144665786Y-110244770D01*
X144665792Y-110244773D01*
X144688664Y-110253633D01*
X144868931Y-110323470D01*
X145083074Y-110363500D01*
X145083076Y-110363500D01*
X145300924Y-110363500D01*
X145300926Y-110363500D01*
X145515069Y-110323470D01*
X145718210Y-110244772D01*
X145903432Y-110130088D01*
X146064427Y-109983322D01*
X146195712Y-109809472D01*
X146292817Y-109614459D01*
X146352435Y-109404923D01*
X146372536Y-109188000D01*
X146352435Y-108971077D01*
X146292817Y-108761541D01*
X146195712Y-108566528D01*
X146064427Y-108392678D01*
X146064425Y-108392675D01*
X145940055Y-108279298D01*
X145903773Y-108219587D01*
X145905534Y-108149740D01*
X145940056Y-108096023D01*
X146064054Y-107982985D01*
X146195284Y-107809208D01*
X146292348Y-107614280D01*
X146342505Y-107438000D01*
X145507686Y-107438000D01*
X145519641Y-107426045D01*
X145577165Y-107313148D01*
X145596986Y-107188000D01*
X145577165Y-107062852D01*
X145519641Y-106949955D01*
X145507686Y-106938000D01*
X146342505Y-106938000D01*
X146342505Y-106937999D01*
X146292348Y-106761719D01*
X146195284Y-106566791D01*
X146064054Y-106393014D01*
X145903131Y-106246314D01*
X145717987Y-106131677D01*
X145717985Y-106131676D01*
X145514931Y-106053013D01*
X145514921Y-106053010D01*
X145442001Y-106039378D01*
X145442000Y-106039379D01*
X145442000Y-106872314D01*
X145430045Y-106860359D01*
X145317148Y-106802835D01*
X145223481Y-106788000D01*
X145160519Y-106788000D01*
X145066852Y-106802835D01*
X144953955Y-106860359D01*
X144942000Y-106872314D01*
X144942000Y-106039379D01*
X144941998Y-106039378D01*
X144869078Y-106053010D01*
X144869068Y-106053013D01*
X144666014Y-106131676D01*
X144666012Y-106131677D01*
X144480869Y-106246314D01*
X144480868Y-106246314D01*
X144319945Y-106393014D01*
X144290954Y-106431405D01*
X144234845Y-106473041D01*
X144165133Y-106477732D01*
X144103951Y-106443990D01*
X144093046Y-106431405D01*
X144064054Y-106393014D01*
X143903131Y-106246314D01*
X143717987Y-106131677D01*
X143717985Y-106131676D01*
X143514931Y-106053013D01*
X143514921Y-106053010D01*
X143442001Y-106039378D01*
X143442000Y-106039379D01*
X143442000Y-106872314D01*
X143430045Y-106860359D01*
X143317148Y-106802835D01*
X143223481Y-106788000D01*
X143160519Y-106788000D01*
X143066852Y-106802835D01*
X142953955Y-106860359D01*
X142942000Y-106872314D01*
X142942000Y-106039379D01*
X142941998Y-106039378D01*
X142869078Y-106053010D01*
X142869068Y-106053013D01*
X142666014Y-106131676D01*
X142666012Y-106131677D01*
X142480869Y-106246314D01*
X142480868Y-106246314D01*
X142319945Y-106393014D01*
X142290954Y-106431405D01*
X142234845Y-106473041D01*
X142165133Y-106477732D01*
X142103951Y-106443990D01*
X142093046Y-106431405D01*
X142064054Y-106393014D01*
X141903131Y-106246314D01*
X141717987Y-106131677D01*
X141717985Y-106131676D01*
X141514931Y-106053013D01*
X141514921Y-106053010D01*
X141442001Y-106039378D01*
X141442000Y-106039379D01*
X141442000Y-106872314D01*
X141430045Y-106860359D01*
X141317148Y-106802835D01*
X141223481Y-106788000D01*
X141160519Y-106788000D01*
X141066852Y-106802835D01*
X140953955Y-106860359D01*
X140942000Y-106872314D01*
X140942000Y-106039379D01*
X140941998Y-106039378D01*
X140869078Y-106053010D01*
X140869068Y-106053013D01*
X140666014Y-106131676D01*
X140666012Y-106131677D01*
X140480869Y-106246314D01*
X140480868Y-106246314D01*
X140319945Y-106393014D01*
X140290954Y-106431405D01*
X140234845Y-106473041D01*
X140165133Y-106477732D01*
X140103951Y-106443990D01*
X140093046Y-106431405D01*
X140064054Y-106393014D01*
X139903131Y-106246314D01*
X139717987Y-106131677D01*
X139717985Y-106131676D01*
X139514931Y-106053013D01*
X139514921Y-106053010D01*
X139442001Y-106039378D01*
X139442000Y-106039379D01*
X139442000Y-106872314D01*
X139430045Y-106860359D01*
X139317148Y-106802835D01*
X139223481Y-106788000D01*
X139160519Y-106788000D01*
X139066852Y-106802835D01*
X138953955Y-106860359D01*
X138942000Y-106872314D01*
X138942000Y-106039379D01*
X138941998Y-106039378D01*
X138869078Y-106053010D01*
X138869068Y-106053013D01*
X138666014Y-106131676D01*
X138666012Y-106131677D01*
X138480869Y-106246314D01*
X138480868Y-106246314D01*
X138319945Y-106393014D01*
X138290954Y-106431405D01*
X138234845Y-106473041D01*
X138165133Y-106477732D01*
X138103951Y-106443990D01*
X138093046Y-106431405D01*
X138064054Y-106393014D01*
X137903131Y-106246314D01*
X137717987Y-106131677D01*
X137717985Y-106131676D01*
X137514931Y-106053013D01*
X137514921Y-106053010D01*
X137442001Y-106039378D01*
X137442000Y-106039379D01*
X137442000Y-106872314D01*
X137430045Y-106860359D01*
X137317148Y-106802835D01*
X137223481Y-106788000D01*
X137160519Y-106788000D01*
X137066852Y-106802835D01*
X136953955Y-106860359D01*
X136942000Y-106872314D01*
X136942000Y-106039379D01*
X136941998Y-106039378D01*
X136869078Y-106053010D01*
X136869068Y-106053013D01*
X136666014Y-106131676D01*
X136666012Y-106131677D01*
X136480869Y-106246314D01*
X136480868Y-106246314D01*
X136319945Y-106393014D01*
X136290954Y-106431405D01*
X136234845Y-106473041D01*
X136165133Y-106477732D01*
X136103951Y-106443990D01*
X136093046Y-106431405D01*
X136064054Y-106393014D01*
X135903131Y-106246314D01*
X135717987Y-106131677D01*
X135717985Y-106131676D01*
X135514931Y-106053013D01*
X135514921Y-106053010D01*
X135442001Y-106039378D01*
X135442000Y-106039379D01*
X135442000Y-106872314D01*
X135430045Y-106860359D01*
X135317148Y-106802835D01*
X135223481Y-106788000D01*
X135160519Y-106788000D01*
X135066852Y-106802835D01*
X134953955Y-106860359D01*
X134942000Y-106872314D01*
X134942000Y-106039379D01*
X134941998Y-106039378D01*
X134869078Y-106053010D01*
X134869068Y-106053013D01*
X134666014Y-106131676D01*
X134666012Y-106131677D01*
X134480869Y-106246314D01*
X134480868Y-106246314D01*
X134469515Y-106256664D01*
X134406710Y-106287278D01*
X134337323Y-106279077D01*
X134286715Y-106239334D01*
X134224190Y-106155812D01*
X134224187Y-106155809D01*
X134109093Y-106069649D01*
X134109086Y-106069645D01*
X133974379Y-106019403D01*
X133974372Y-106019401D01*
X133914844Y-106013000D01*
X133442000Y-106013000D01*
X133442000Y-106872314D01*
X133430045Y-106860359D01*
X133317148Y-106802835D01*
X133223481Y-106788000D01*
X133160519Y-106788000D01*
X133066852Y-106802835D01*
X132953955Y-106860359D01*
X132942000Y-106872314D01*
X132942000Y-106013000D01*
X132469155Y-106013000D01*
X132409627Y-106019401D01*
X132409620Y-106019403D01*
X132274913Y-106069645D01*
X132274906Y-106069649D01*
X132159812Y-106155809D01*
X132159809Y-106155812D01*
X132073649Y-106270906D01*
X132073645Y-106270913D01*
X132023403Y-106405620D01*
X132023401Y-106405627D01*
X132017000Y-106465155D01*
X132017000Y-106938000D01*
X132876314Y-106938000D01*
X132864359Y-106949955D01*
X132806835Y-107062852D01*
X132787014Y-107188000D01*
X132806835Y-107313148D01*
X132864359Y-107426045D01*
X132876314Y-107438000D01*
X132017000Y-107438000D01*
X132017000Y-107910844D01*
X132023401Y-107970372D01*
X132023403Y-107970379D01*
X132073645Y-108105086D01*
X132073649Y-108105093D01*
X132159809Y-108220186D01*
X132245405Y-108284264D01*
X132287276Y-108340198D01*
X132292260Y-108409890D01*
X132270049Y-108458257D01*
X132188288Y-108566528D01*
X132091184Y-108761537D01*
X132031564Y-108971081D01*
X132011464Y-109187999D01*
X132011464Y-109188000D01*
X131572500Y-109188000D01*
X131572500Y-105927412D01*
X131573059Y-105920006D01*
X131572525Y-105917870D01*
X131572526Y-105917869D01*
X131572525Y-105917867D01*
X131572489Y-105917723D01*
X131570957Y-105916181D01*
X131564513Y-105912924D01*
X125282703Y-102143837D01*
X125235344Y-102092466D01*
X125222500Y-102037508D01*
X125222500Y-91948000D01*
X130216341Y-91948000D01*
X130236936Y-92183403D01*
X130236938Y-92183413D01*
X130298094Y-92411655D01*
X130298096Y-92411659D01*
X130298097Y-92411663D01*
X130302000Y-92420032D01*
X130397965Y-92625830D01*
X130397967Y-92625834D01*
X130506281Y-92780521D01*
X130533501Y-92819396D01*
X130533506Y-92819402D01*
X130700597Y-92986493D01*
X130702419Y-92988022D01*
X130703001Y-92988897D01*
X130704427Y-92990323D01*
X130704140Y-92990609D01*
X130741119Y-93046195D01*
X130742224Y-93116056D01*
X130705384Y-93175424D01*
X130661719Y-93200712D01*
X130652883Y-93203640D01*
X130652875Y-93203643D01*
X130503654Y-93295684D01*
X130379684Y-93419654D01*
X130287643Y-93568875D01*
X130287641Y-93568880D01*
X130232494Y-93735302D01*
X130232493Y-93735309D01*
X130222000Y-93838013D01*
X130222000Y-94238000D01*
X131138314Y-94238000D01*
X131112507Y-94278156D01*
X131072000Y-94416111D01*
X131072000Y-94559889D01*
X131112507Y-94697844D01*
X131138314Y-94738000D01*
X130222001Y-94738000D01*
X130222001Y-95137986D01*
X130232494Y-95240697D01*
X130287641Y-95407119D01*
X130287643Y-95407124D01*
X130379684Y-95556345D01*
X130503654Y-95680315D01*
X130652875Y-95772356D01*
X130652880Y-95772358D01*
X130819302Y-95827505D01*
X130819309Y-95827506D01*
X130922019Y-95837999D01*
X131321999Y-95837999D01*
X131322000Y-95837998D01*
X131322000Y-94923501D01*
X131429685Y-94972680D01*
X131536237Y-94988000D01*
X131607763Y-94988000D01*
X131714315Y-94972680D01*
X131822000Y-94923501D01*
X131822000Y-95837999D01*
X132221972Y-95837999D01*
X132221986Y-95837998D01*
X132324697Y-95827505D01*
X132491119Y-95772358D01*
X132491124Y-95772356D01*
X132640345Y-95680315D01*
X132764315Y-95556345D01*
X132856356Y-95407124D01*
X132856357Y-95407120D01*
X132859470Y-95397728D01*
X132899242Y-95340282D01*
X132963757Y-95313457D01*
X133032533Y-95325771D01*
X133069998Y-95355313D01*
X133070062Y-95355250D01*
X133070601Y-95355789D01*
X133072167Y-95357024D01*
X133073892Y-95359080D01*
X133240917Y-95526105D01*
X133434421Y-95661600D01*
X133648507Y-95761429D01*
X133648516Y-95761433D01*
X133862000Y-95818634D01*
X133862000Y-94923501D01*
X133969685Y-94972680D01*
X134076237Y-94988000D01*
X134147763Y-94988000D01*
X134254315Y-94972680D01*
X134362000Y-94923501D01*
X134362000Y-95818634D01*
X134575483Y-95761433D01*
X134575492Y-95761429D01*
X134789578Y-95661600D01*
X134983082Y-95526105D01*
X135150105Y-95359082D01*
X135280425Y-95172968D01*
X135335002Y-95129344D01*
X135404501Y-95122151D01*
X135466855Y-95153673D01*
X135483575Y-95172968D01*
X135613894Y-95359082D01*
X135780917Y-95526105D01*
X135974421Y-95661600D01*
X136188507Y-95761429D01*
X136188516Y-95761433D01*
X136402000Y-95818634D01*
X136402000Y-94923501D01*
X136509685Y-94972680D01*
X136616237Y-94988000D01*
X136687763Y-94988000D01*
X136794315Y-94972680D01*
X136902000Y-94923501D01*
X136902000Y-95818634D01*
X137115483Y-95761433D01*
X137115492Y-95761429D01*
X137329578Y-95661600D01*
X137523082Y-95526105D01*
X137690105Y-95359082D01*
X137820425Y-95172968D01*
X137875002Y-95129344D01*
X137944501Y-95122151D01*
X138006855Y-95153673D01*
X138023575Y-95172968D01*
X138153894Y-95359082D01*
X138320917Y-95526105D01*
X138514421Y-95661600D01*
X138728507Y-95761429D01*
X138728516Y-95761433D01*
X138942000Y-95818634D01*
X138942000Y-94923501D01*
X139049685Y-94972680D01*
X139156237Y-94988000D01*
X139227763Y-94988000D01*
X139334315Y-94972680D01*
X139442000Y-94923501D01*
X139442000Y-95818634D01*
X139655483Y-95761433D01*
X139655492Y-95761429D01*
X139869578Y-95661600D01*
X140063082Y-95526105D01*
X140230105Y-95359082D01*
X140360425Y-95172968D01*
X140415002Y-95129344D01*
X140484501Y-95122151D01*
X140546855Y-95153673D01*
X140563575Y-95172968D01*
X140693894Y-95359082D01*
X140860917Y-95526105D01*
X141054421Y-95661600D01*
X141268507Y-95761429D01*
X141268516Y-95761433D01*
X141482000Y-95818634D01*
X141482000Y-94923501D01*
X141589685Y-94972680D01*
X141696237Y-94988000D01*
X141767763Y-94988000D01*
X141874315Y-94972680D01*
X141982000Y-94923501D01*
X141982000Y-95818634D01*
X142195483Y-95761433D01*
X142195492Y-95761429D01*
X142409578Y-95661600D01*
X142603082Y-95526105D01*
X142770105Y-95359082D01*
X142900425Y-95172968D01*
X142955002Y-95129344D01*
X143024501Y-95122151D01*
X143086855Y-95153673D01*
X143103575Y-95172968D01*
X143233894Y-95359082D01*
X143400917Y-95526105D01*
X143594421Y-95661600D01*
X143808507Y-95761429D01*
X143808516Y-95761433D01*
X144022000Y-95818634D01*
X144022000Y-94923501D01*
X144129685Y-94972680D01*
X144236237Y-94988000D01*
X144307763Y-94988000D01*
X144414315Y-94972680D01*
X144522000Y-94923501D01*
X144522000Y-95818633D01*
X144735483Y-95761433D01*
X144735492Y-95761429D01*
X144949578Y-95661600D01*
X145143082Y-95526105D01*
X145310105Y-95359082D01*
X145440425Y-95172968D01*
X145495002Y-95129344D01*
X145564501Y-95122151D01*
X145626855Y-95153673D01*
X145643575Y-95172968D01*
X145773894Y-95359082D01*
X145940917Y-95526105D01*
X146134421Y-95661600D01*
X146348507Y-95761429D01*
X146348516Y-95761433D01*
X146562000Y-95818634D01*
X146562000Y-94923501D01*
X146669685Y-94972680D01*
X146776237Y-94988000D01*
X146847763Y-94988000D01*
X146954315Y-94972680D01*
X147062000Y-94923501D01*
X147062000Y-95818633D01*
X147275483Y-95761433D01*
X147275492Y-95761429D01*
X147489578Y-95661600D01*
X147683082Y-95526105D01*
X147850105Y-95359082D01*
X147985600Y-95165578D01*
X148085429Y-94951492D01*
X148085432Y-94951486D01*
X148142636Y-94738000D01*
X147245686Y-94738000D01*
X147271493Y-94697844D01*
X147312000Y-94559889D01*
X147312000Y-94416111D01*
X147271493Y-94278156D01*
X147245686Y-94238000D01*
X148142636Y-94238000D01*
X148142635Y-94237999D01*
X148085432Y-94024513D01*
X148085429Y-94024507D01*
X147985600Y-93810422D01*
X147985599Y-93810420D01*
X147850113Y-93616926D01*
X147850108Y-93616920D01*
X147683078Y-93449890D01*
X147497405Y-93319879D01*
X147453780Y-93265302D01*
X147446588Y-93195804D01*
X147478110Y-93133449D01*
X147497406Y-93116730D01*
X147526409Y-93096422D01*
X147683401Y-92986495D01*
X147850495Y-92819401D01*
X147986035Y-92625830D01*
X148085903Y-92411663D01*
X148147063Y-92183408D01*
X148167659Y-91948000D01*
X148147063Y-91712592D01*
X148085903Y-91484337D01*
X147986035Y-91270171D01*
X147980425Y-91262158D01*
X147850494Y-91076597D01*
X147683402Y-90909506D01*
X147683395Y-90909501D01*
X147489834Y-90773967D01*
X147489830Y-90773965D01*
X147489828Y-90773964D01*
X147275663Y-90674097D01*
X147275659Y-90674096D01*
X147275655Y-90674094D01*
X147047413Y-90612938D01*
X147047403Y-90612936D01*
X146812001Y-90592341D01*
X146811999Y-90592341D01*
X146576596Y-90612936D01*
X146576586Y-90612938D01*
X146348344Y-90674094D01*
X146348335Y-90674098D01*
X146134171Y-90773964D01*
X146134169Y-90773965D01*
X145940597Y-90909505D01*
X145773505Y-91076597D01*
X145643575Y-91262158D01*
X145588998Y-91305783D01*
X145519500Y-91312977D01*
X145457145Y-91281454D01*
X145440425Y-91262158D01*
X145310494Y-91076597D01*
X145143402Y-90909506D01*
X145143395Y-90909501D01*
X144949834Y-90773967D01*
X144949830Y-90773965D01*
X144949828Y-90773964D01*
X144735663Y-90674097D01*
X144735659Y-90674096D01*
X144735655Y-90674094D01*
X144507413Y-90612938D01*
X144507403Y-90612936D01*
X144272001Y-90592341D01*
X144271999Y-90592341D01*
X144036596Y-90612936D01*
X144036586Y-90612938D01*
X143808344Y-90674094D01*
X143808335Y-90674098D01*
X143594171Y-90773964D01*
X143594169Y-90773965D01*
X143400597Y-90909505D01*
X143233505Y-91076597D01*
X143103575Y-91262158D01*
X143048998Y-91305783D01*
X142979500Y-91312977D01*
X142917145Y-91281454D01*
X142900425Y-91262158D01*
X142770494Y-91076597D01*
X142603402Y-90909506D01*
X142603395Y-90909501D01*
X142409834Y-90773967D01*
X142409830Y-90773965D01*
X142409828Y-90773964D01*
X142195663Y-90674097D01*
X142195659Y-90674096D01*
X142195655Y-90674094D01*
X141967413Y-90612938D01*
X141967403Y-90612936D01*
X141732001Y-90592341D01*
X141731999Y-90592341D01*
X141496596Y-90612936D01*
X141496586Y-90612938D01*
X141268344Y-90674094D01*
X141268335Y-90674098D01*
X141054171Y-90773964D01*
X141054169Y-90773965D01*
X140860597Y-90909505D01*
X140693505Y-91076597D01*
X140563575Y-91262158D01*
X140508998Y-91305783D01*
X140439500Y-91312977D01*
X140377145Y-91281454D01*
X140360425Y-91262158D01*
X140230494Y-91076597D01*
X140063402Y-90909506D01*
X140063395Y-90909501D01*
X139869834Y-90773967D01*
X139869830Y-90773965D01*
X139869828Y-90773964D01*
X139655663Y-90674097D01*
X139655659Y-90674096D01*
X139655655Y-90674094D01*
X139427413Y-90612938D01*
X139427403Y-90612936D01*
X139192001Y-90592341D01*
X139191999Y-90592341D01*
X138956596Y-90612936D01*
X138956586Y-90612938D01*
X138728344Y-90674094D01*
X138728335Y-90674098D01*
X138514171Y-90773964D01*
X138514169Y-90773965D01*
X138320597Y-90909505D01*
X138153505Y-91076597D01*
X138023575Y-91262158D01*
X137968998Y-91305783D01*
X137899500Y-91312977D01*
X137837145Y-91281454D01*
X137820425Y-91262158D01*
X137690494Y-91076597D01*
X137523402Y-90909506D01*
X137523395Y-90909501D01*
X137329834Y-90773967D01*
X137329830Y-90773965D01*
X137329828Y-90773964D01*
X137115663Y-90674097D01*
X137115659Y-90674096D01*
X137115655Y-90674094D01*
X136887413Y-90612938D01*
X136887403Y-90612936D01*
X136652001Y-90592341D01*
X136651999Y-90592341D01*
X136416596Y-90612936D01*
X136416586Y-90612938D01*
X136188344Y-90674094D01*
X136188335Y-90674098D01*
X135974171Y-90773964D01*
X135974169Y-90773965D01*
X135780597Y-90909505D01*
X135613505Y-91076597D01*
X135483575Y-91262158D01*
X135428998Y-91305783D01*
X135359500Y-91312977D01*
X135297145Y-91281454D01*
X135280425Y-91262158D01*
X135150494Y-91076597D01*
X134983402Y-90909506D01*
X134983395Y-90909501D01*
X134789834Y-90773967D01*
X134789830Y-90773965D01*
X134789828Y-90773964D01*
X134575663Y-90674097D01*
X134575659Y-90674096D01*
X134575655Y-90674094D01*
X134347413Y-90612938D01*
X134347403Y-90612936D01*
X134112001Y-90592341D01*
X134111999Y-90592341D01*
X133876596Y-90612936D01*
X133876586Y-90612938D01*
X133648344Y-90674094D01*
X133648335Y-90674098D01*
X133434171Y-90773964D01*
X133434169Y-90773965D01*
X133240597Y-90909505D01*
X133073505Y-91076597D01*
X132943575Y-91262158D01*
X132888998Y-91305783D01*
X132819500Y-91312977D01*
X132757145Y-91281454D01*
X132740425Y-91262158D01*
X132610494Y-91076597D01*
X132443402Y-90909506D01*
X132443395Y-90909501D01*
X132249834Y-90773967D01*
X132249830Y-90773965D01*
X132249828Y-90773964D01*
X132035663Y-90674097D01*
X132035659Y-90674096D01*
X132035655Y-90674094D01*
X131807413Y-90612938D01*
X131807403Y-90612936D01*
X131572001Y-90592341D01*
X131571999Y-90592341D01*
X131336596Y-90612936D01*
X131336586Y-90612938D01*
X131108344Y-90674094D01*
X131108335Y-90674098D01*
X130894171Y-90773964D01*
X130894169Y-90773965D01*
X130700597Y-90909505D01*
X130533505Y-91076597D01*
X130397965Y-91270169D01*
X130397964Y-91270171D01*
X130298098Y-91484335D01*
X130298094Y-91484344D01*
X130236938Y-91712586D01*
X130236936Y-91712596D01*
X130216341Y-91947999D01*
X130216341Y-91948000D01*
X125222500Y-91948000D01*
X125222500Y-87633046D01*
X125222799Y-87626965D01*
X125223035Y-87624563D01*
X125225975Y-87594710D01*
X125238419Y-87484269D01*
X125242978Y-87462167D01*
X125259121Y-87408950D01*
X125286797Y-87329857D01*
X125294462Y-87312401D01*
X125322983Y-87259041D01*
X125325107Y-87255382D01*
X125368873Y-87185728D01*
X125373426Y-87179406D01*
X125415849Y-87127713D01*
X125419891Y-87123254D01*
X125477254Y-87065891D01*
X125481713Y-87061849D01*
X125533406Y-87019426D01*
X125539728Y-87014873D01*
X125609382Y-86971107D01*
X125613041Y-86968983D01*
X125666401Y-86940462D01*
X125683857Y-86932797D01*
X125762956Y-86905119D01*
X125816172Y-86888976D01*
X125838269Y-86884419D01*
X125948710Y-86871975D01*
X125978563Y-86869035D01*
X125980965Y-86868799D01*
X125987046Y-86868500D01*
X152396953Y-86868500D01*
X152403034Y-86868799D01*
G37*
G04 #@! TD.AperFunction*
M02*
